{
    "asset" : {
        "generator" : "Khronos glTF Blender I/O v1.3.48",
        "version" : "2.0"
    },
    "scene" : 0,
    "scenes" : [
        {
            "name" : "Scene",
            "nodes" : [
                0
            ]
        }
    ],
    "nodes" : [
        {
            "mesh" : 0,
            "name" : "HELMET"
        }
    ],
    "materials" : [
        {
            "doubleSided" : true,
            "emissiveFactor" : [
                0,
                0,
                0
            ],
            "name" : "Material.036",
            "pbrMetallicRoughness" : {
                "baseColorTexture" : {
                    "index" : 0,
                    "texCoord" : 0
                },
                "metallicFactor" : 0,
                "roughnessFactor" : 0.5
            }
        }
    ],
    "meshes" : [
        {
            "name" : "Sphere.001",
            "primitives" : [
                {
                    "attributes" : {
                        "POSITION" : 0,
                        "NORMAL" : 1,
                        "TEXCOORD_0" : 2
                    },
                    "indices" : 3,
                    "material" : 0
                }
            ]
        }
    ],
    "textures" : [
        {
            "source" : 0
        }
    ],
    "images" : [
        {
            "bufferView" : 4,
            "mimeType" : "image/png",
            "name" : "Untitled"
        }
    ],
    "accessors" : [
        {
            "bufferView" : 0,
            "componentType" : 5126,
            "count" : 395,
            "max" : [
                0.20834089815616608,
                0.8882666826248169,
                0.23381198942661285
            ],
            "min" : [
                -0.2198658585548401,
                0.4802876114845276,
                -0.20621149241924286
            ],
            "type" : "VEC3"
        },
        {
            "bufferView" : 1,
            "componentType" : 5126,
            "count" : 395,
            "type" : "VEC3"
        },
        {
            "bufferView" : 2,
            "componentType" : 5126,
            "count" : 395,
            "type" : "VEC2"
        },
        {
            "bufferView" : 3,
            "componentType" : 5123,
            "count" : 1740,
            "type" : "SCALAR"
        }
    ],
    "bufferViews" : [
        {
            "buffer" : 0,
            "byteLength" : 4740,
            "byteOffset" : 0
        },
        {
            "buffer" : 0,
            "byteLength" : 4740,
            "byteOffset" : 4740
        },
        {
            "buffer" : 0,
            "byteLength" : 3160,
            "byteOffset" : 9480
        },
        {
            "buffer" : 0,
            "byteLength" : 3480,
            "byteOffset" : 12640
        },
        {
            "buffer" : 0,
            "byteLength" : 194837,
            "byteOffset" : 16120
        }
    ],
    "buffers" : [
        {
            "byteLength" : 210960,
            "uri" : "data:application/octet-stream;base64,"
        }
    ]
}
