{
    "asset" : {
        "generator" : "Khronos glTF Blender I/O v1.3.48",
        "version" : "2.0"
    },
    "scene" : 0,
    "scenes" : [
        {
            "name" : "Scene",
            "nodes" : [
                0
            ]
        }
    ],
    "nodes" : [
        {
            "mesh" : 0,
            "name" : "Goopie DO NOT ADD ANIMATIONS.002"
        }
    ],
    "materials" : [
        {
            "doubleSided" : true,
            "emissiveFactor" : [
                0,
                0,
                0
            ],
            "name" : "Material.022",
            "pbrMetallicRoughness" : {
                "baseColorTexture" : {
                    "index" : 0,
                    "texCoord" : 0
                },
                "metallicFactor" : 0,
                "roughnessFactor" : 0.5
            }
        }
    ],
    "meshes" : [
        {
            "name" : "Goop.011",
            "primitives" : [
                {
                    "attributes" : {
                        "POSITION" : 0,
                        "NORMAL" : 1,
                        "TEXCOORD_0" : 2
                    },
                    "indices" : 3,
                    "material" : 0
                }
            ]
        }
    ],
    "textures" : [
        {
            "source" : 0
        }
    ],
    "images" : [
        {
            "bufferView" : 4,
            "mimeType" : "image/png",
            "name" : "Untitled"
        }
    ],
    "accessors" : [
        {
            "bufferView" : 0,
            "componentType" : 5126,
            "count" : 2442,
            "max" : [
                0.2888604998588562,
                0.5236488580703735,
                0.3544088900089264
            ],
            "min" : [
                -0.2005583643913269,
                0.06631036102771759,
                -0.20182575285434723
            ],
            "type" : "VEC3"
        },
        {
            "bufferView" : 1,
            "componentType" : 5126,
            "count" : 2442,
            "type" : "VEC3"
        },
        {
            "bufferView" : 2,
            "componentType" : 5126,
            "count" : 2442,
            "type" : "VEC2"
        },
        {
            "bufferView" : 3,
            "componentType" : 5123,
            "count" : 4980,
            "type" : "SCALAR"
        }
    ],
    "bufferViews" : [
        {
            "buffer" : 0,
            "byteLength" : 29304,
            "byteOffset" : 0
        },
        {
            "buffer" : 0,
            "byteLength" : 29304,
            "byteOffset" : 29304
        },
        {
            "buffer" : 0,
            "byteLength" : 19536,
            "byteOffset" : 58608
        },
        {
            "buffer" : 0,
            "byteLength" : 9960,
            "byteOffset" : 78144
        },
        {
            "buffer" : 0,
            "byteLength" : 305450,
            "byteOffset" : 88104
        }
    ],
    "buffers" : [
        {
            "byteLength" : 393556,
            "uri" : "data:application/octet-stream;base64,"
        }
    ]
}
