{
    "asset" : {
        "generator" : "Khronos glTF Blender I/O v1.3.48",
        "version" : "2.0"
    },
    "scene" : 0,
    "scenes" : [
        {
            "name" : "Scene",
            "nodes" : [
                0
            ]
        }
    ],
    "nodes" : [
        {
            "mesh" : 0,
            "name" : "Hooman.001",
            "rotation" : [
                0,
                1,
                0,
                -2.821299744937278e-07
            ],
            "scale" : [
                1.2930949926376343,
                1.2930949926376343,
                1.2930949926376343
            ],
            "translation" : [
                -18.13859748840332,
                0.4570380449295044,
                -14.910100936889648
            ]
        }
    ],
    "meshes" : [
        {
            "name" : "Plane.000",
            "primitives" : [
                {
                    "attributes" : {
                        "POSITION" : 0,
                        "NORMAL" : 1,
                        "TEXCOORD_0" : 2,
                        "COLOR_0" : 3
                    },
                    "indices" : 4
                }
            ]
        }
    ],
    "accessors" : [
        {
            "bufferView" : 0,
            "componentType" : 5126,
            "count" : 234,
            "max" : [
                0.009495139122009277,
                0.7206363677978516,
                0.20616018772125244
            ],
            "min" : [
                -0.3556869924068451,
                -0.4122219383716583,
                -0.2444746494293213
            ],
            "type" : "VEC3"
        },
        {
            "bufferView" : 1,
            "componentType" : 5126,
            "count" : 234,
            "type" : "VEC3"
        },
        {
            "bufferView" : 2,
            "componentType" : 5126,
            "count" : 234,
            "type" : "VEC2"
        },
        {
            "bufferView" : 3,
            "componentType" : 5126,
            "count" : 234,
            "type" : "VEC4"
        },
        {
            "bufferView" : 4,
            "componentType" : 5123,
            "count" : 573,
            "type" : "SCALAR"
        }
    ],
    "bufferViews" : [
        {
            "buffer" : 0,
            "byteLength" : 2808,
            "byteOffset" : 0
        },
        {
            "buffer" : 0,
            "byteLength" : 2808,
            "byteOffset" : 2808
        },
        {
            "buffer" : 0,
            "byteLength" : 1872,
            "byteOffset" : 5616
        },
        {
            "buffer" : 0,
            "byteLength" : 3744,
            "byteOffset" : 7488
        },
        {
            "buffer" : 0,
            "byteLength" : 1146,
            "byteOffset" : 11232
        }
    ],
    "buffers" : [
        {
            "byteLength" : 12380,
            "uri" : "data:application/octet-stream;base64,"
        }
    ]
}
