{
    "asset" : {
        "generator" : "Khronos glTF Blender I/O v1.3.48",
        "version" : "2.0"
    },
    "scene" : 0,
    "scenes" : [
        {
            "name" : "Scene",
            "nodes" : [
                0
            ]
        }
    ],
    "nodes" : [
        {
            "mesh" : 0,
            "name" : "Block4"
        }
    ],
    "materials" : [
        {
            "doubleSided" : true,
            "emissiveFactor" : [
                0,
                0,
                0
            ],
            "name" : "Material.001",
            "pbrMetallicRoughness" : {
                "baseColorTexture" : {
                    "index" : 0,
                    "texCoord" : 0
                },
                "metallicFactor" : 0,
                "roughnessFactor" : 1
            }
        }
    ],
    "meshes" : [
        {
            "name" : "Plane.004",
            "primitives" : [
                {
                    "attributes" : {
                        "POSITION" : 0,
                        "NORMAL" : 1,
                        "TEXCOORD_0" : 2
                    },
                    "indices" : 3,
                    "material" : 0
                }
            ]
        }
    ],
    "textures" : [
        {
            "source" : 0
        }
    ],
    "images" : [
        {
            "bufferView" : 4,
            "mimeType" : "image/png",
            "name" : "textures"
        }
    ],
    "accessors" : [
        {
            "bufferView" : 0,
            "componentType" : 5126,
            "count" : 54261,
            "max" : [
                34.06747055053711,
                6.660589218139648,
                18.474178314208984
            ],
            "min" : [
                -33.94235610961914,
                -0.0858767032623291,
                -18.475906372070312
            ],
            "type" : "VEC3"
        },
        {
            "bufferView" : 1,
            "componentType" : 5126,
            "count" : 54261,
            "type" : "VEC3"
        },
        {
            "bufferView" : 2,
            "componentType" : 5126,
            "count" : 54261,
            "type" : "VEC2"
        },
        {
            "bufferView" : 3,
            "componentType" : 5123,
            "count" : 204615,
            "type" : "SCALAR"
        }
    ],
    "bufferViews" : [
        {
            "buffer" : 0,
            "byteLength" : 651132,
            "byteOffset" : 0
        },
        {
            "buffer" : 0,
            "byteLength" : 651132,
            "byteOffset" : 651132
        },
        {
            "buffer" : 0,
            "byteLength" : 434088,
            "byteOffset" : 1302264
        },
        {
            "buffer" : 0,
            "byteLength" : 409230,
            "byteOffset" : 1736352
        },
        {
            "buffer" : 0,
            "byteLength" : 225271,
            "byteOffset" : 2145584
        }
    ],
    "buffers" : [
        {
            "byteLength" : 2370856,
            "uri" : "data:application/octet-stream;base64,"
        }
    ]
}
