{
    "asset" : {
        "generator" : "Khronos glTF Blender I/O v1.3.48",
        "version" : "2.0"
    },
    "scene" : 0,
    "scenes" : [
        {
            "name" : "Scene",
            "nodes" : [
                0
            ]
        }
    ],
    "nodes" : [
        {
            "mesh" : 0,
            "name" : "Block3"
        }
    ],
    "materials" : [
        {
            "doubleSided" : true,
            "emissiveFactor" : [
                0,
                0,
                0
            ],
            "name" : "Material.001",
            "pbrMetallicRoughness" : {
                "baseColorTexture" : {
                    "index" : 0,
                    "texCoord" : 0
                },
                "metallicFactor" : 0,
                "roughnessFactor" : 1
            }
        }
    ],
    "meshes" : [
        {
            "name" : "Plane.108",
            "primitives" : [
                {
                    "attributes" : {
                        "POSITION" : 0,
                        "NORMAL" : 1,
                        "TEXCOORD_0" : 2
                    },
                    "indices" : 3,
                    "material" : 0
                }
            ]
        }
    ],
    "textures" : [
        {
            "source" : 0
        }
    ],
    "images" : [
        {
            "bufferView" : 4,
            "mimeType" : "image/png",
            "name" : "textures"
        }
    ],
    "accessors" : [
        {
            "bufferView" : 0,
            "componentType" : 5126,
            "count" : 59888,
            "max" : [
                34.01462173461914,
                6.644044876098633,
                18.46756362915039
            ],
            "min" : [
                -34.046417236328125,
                -0.07900172472000122,
                -18.474178314208984
            ],
            "type" : "VEC3"
        },
        {
            "bufferView" : 1,
            "componentType" : 5126,
            "count" : 59888,
            "type" : "VEC3"
        },
        {
            "bufferView" : 2,
            "componentType" : 5126,
            "count" : 59888,
            "type" : "VEC2"
        },
        {
            "bufferView" : 3,
            "componentType" : 5123,
            "count" : 210033,
            "type" : "SCALAR"
        }
    ],
    "bufferViews" : [
        {
            "buffer" : 0,
            "byteLength" : 718656,
            "byteOffset" : 0
        },
        {
            "buffer" : 0,
            "byteLength" : 718656,
            "byteOffset" : 718656
        },
        {
            "buffer" : 0,
            "byteLength" : 479104,
            "byteOffset" : 1437312
        },
        {
            "buffer" : 0,
            "byteLength" : 420066,
            "byteOffset" : 1916416
        },
        {
            "buffer" : 0,
            "byteLength" : 225271,
            "byteOffset" : 2336484
        }
    ],
    "buffers" : [
        {
            "byteLength" : 2561756,
            "uri" : "data:application/octet-stream;base64,"
        }
    ]
}
