{
    "asset" : {
        "generator" : "Khronos glTF Blender I/O v1.3.48",
        "version" : "2.0"
    },
    "scene" : 0,
    "scenes" : [
        {
            "name" : "Scene",
            "nodes" : [
                0
            ]
        }
    ],
    "nodes" : [
        {
            "mesh" : 0,
            "name" : "Block1"
        }
    ],
    "materials" : [
        {
            "doubleSided" : true,
            "emissiveFactor" : [
                0,
                0,
                0
            ],
            "name" : "Material.001",
            "pbrMetallicRoughness" : {
                "baseColorTexture" : {
                    "index" : 0,
                    "texCoord" : 0
                },
                "metallicFactor" : 0,
                "roughnessFactor" : 1
            }
        }
    ],
    "meshes" : [
        {
            "name" : "Plane.110",
            "primitives" : [
                {
                    "attributes" : {
                        "POSITION" : 0,
                        "NORMAL" : 1,
                        "TEXCOORD_0" : 2
                    },
                    "indices" : 3,
                    "material" : 0
                }
            ]
        }
    ],
    "textures" : [
        {
            "source" : 0
        }
    ],
    "images" : [
        {
            "bufferView" : 4,
            "mimeType" : "image/png",
            "name" : "textures"
        }
    ],
    "accessors" : [
        {
            "bufferView" : 0,
            "componentType" : 5126,
            "count" : 30157,
            "max" : [
                29.973737716674805,
                6.660589218139648,
                18.48468780517578
            ],
            "min" : [
                -33.822635650634766,
                -0.10548901557922363,
                -18.464313507080078
            ],
            "type" : "VEC3"
        },
        {
            "bufferView" : 1,
            "componentType" : 5126,
            "count" : 30157,
            "type" : "VEC3"
        },
        {
            "bufferView" : 2,
            "componentType" : 5126,
            "count" : 30157,
            "type" : "VEC2"
        },
        {
            "bufferView" : 3,
            "componentType" : 5123,
            "count" : 117126,
            "type" : "SCALAR"
        }
    ],
    "bufferViews" : [
        {
            "buffer" : 0,
            "byteLength" : 361884,
            "byteOffset" : 0
        },
        {
            "buffer" : 0,
            "byteLength" : 361884,
            "byteOffset" : 361884
        },
        {
            "buffer" : 0,
            "byteLength" : 241256,
            "byteOffset" : 723768
        },
        {
            "buffer" : 0,
            "byteLength" : 234252,
            "byteOffset" : 965024
        },
        {
            "buffer" : 0,
            "byteLength" : 225271,
            "byteOffset" : 1199276
        }
    ],
    "buffers" : [
        {
            "byteLength" : 1424548,
            "uri" : "data:application/octet-stream;base64,"
        }
    ]
}
