{
    "asset" : {
        "generator" : "Khronos glTF Blender I/O v1.3.48",
        "version" : "2.0"
    },
    "scene" : 0,
    "scenes" : [
        {
            "name" : "Scene",
            "nodes" : [
                0
            ]
        }
    ],
    "nodes" : [
        {
            "mesh" : 0,
            "name" : "Block2"
        }
    ],
    "materials" : [
        {
            "doubleSided" : true,
            "emissiveFactor" : [
                0,
                0,
                0
            ],
            "name" : "Material.001",
            "pbrMetallicRoughness" : {
                "baseColorTexture" : {
                    "index" : 0,
                    "texCoord" : 0
                },
                "metallicFactor" : 0,
                "roughnessFactor" : 1
            }
        }
    ],
    "meshes" : [
        {
            "name" : "Plane.109",
            "primitives" : [
                {
                    "attributes" : {
                        "POSITION" : 0,
                        "NORMAL" : 1,
                        "TEXCOORD_0" : 2
                    },
                    "indices" : 3,
                    "material" : 0
                }
            ]
        }
    ],
    "textures" : [
        {
            "source" : 0
        }
    ],
    "images" : [
        {
            "bufferView" : 4,
            "mimeType" : "image/png",
            "name" : "textures"
        }
    ],
    "accessors" : [
        {
            "bufferView" : 0,
            "componentType" : 5126,
            "count" : 58083,
            "max" : [
                34.1704216003418,
                6.644044876098633,
                18.464313507080078
            ],
            "min" : [
                -34.01304626464844,
                -0.10548901557922363,
                -18.48468780517578
            ],
            "type" : "VEC3"
        },
        {
            "bufferView" : 1,
            "componentType" : 5126,
            "count" : 58083,
            "type" : "VEC3"
        },
        {
            "bufferView" : 2,
            "componentType" : 5126,
            "count" : 58083,
            "type" : "VEC2"
        },
        {
            "bufferView" : 3,
            "componentType" : 5123,
            "count" : 223176,
            "type" : "SCALAR"
        }
    ],
    "bufferViews" : [
        {
            "buffer" : 0,
            "byteLength" : 696996,
            "byteOffset" : 0
        },
        {
            "buffer" : 0,
            "byteLength" : 696996,
            "byteOffset" : 696996
        },
        {
            "buffer" : 0,
            "byteLength" : 464664,
            "byteOffset" : 1393992
        },
        {
            "buffer" : 0,
            "byteLength" : 446352,
            "byteOffset" : 1858656
        },
        {
            "buffer" : 0,
            "byteLength" : 225271,
            "byteOffset" : 2305008
        }
    ],
    "buffers" : [
        {
            "byteLength" : 2530280,
            "uri" : "data:application/octet-stream;base64,"
        }
    ]
}
