{
    "asset" : {
        "generator" : "Khronos glTF Blender I/O v1.3.48",
        "version" : "2.0"
    },
    "scene" : 0,
    "scenes" : [
        {
            "name" : "Scene",
            "nodes" : [
                0
            ]
        }
    ],
    "nodes" : [
        {
            "mesh" : 0,
            "name" : "Cube.126"
        }
    ],
    "materials" : [
        {
            "doubleSided" : true,
            "emissiveFactor" : [
                0,
                0,
                0
            ],
            "name" : "BackgroundHouses",
            "pbrMetallicRoughness" : {
                "baseColorTexture" : {
                    "index" : 0,
                    "texCoord" : 0
                },
                "metallicFactor" : 0,
                "roughnessFactor" : 1
            }
        }
    ],
    "meshes" : [
        {
            "name" : "Cube.184",
            "primitives" : [
                {
                    "attributes" : {
                        "POSITION" : 0,
                        "NORMAL" : 1,
                        "TEXCOORD_0" : 2
                    },
                    "indices" : 3,
                    "material" : 0
                }
            ]
        }
    ],
    "textures" : [
        {
            "source" : 0
        }
    ],
    "images" : [
        {
            "bufferView" : 4,
            "mimeType" : "image/png",
            "name" : "Untitled"
        }
    ],
    "accessors" : [
        {
            "bufferView" : 0,
            "componentType" : 5126,
            "count" : 5740,
            "max" : [
                20.61087417602539,
                22.336688995361328,
                -17.477258682250977
            ],
            "min" : [
                -26.548973083496094,
                6.802314758300781,
                -35.63182067871094
            ],
            "type" : "VEC3"
        },
        {
            "bufferView" : 1,
            "componentType" : 5126,
            "count" : 5740,
            "type" : "VEC3"
        },
        {
            "bufferView" : 2,
            "componentType" : 5126,
            "count" : 5740,
            "type" : "VEC2"
        },
        {
            "bufferView" : 3,
            "componentType" : 5123,
            "count" : 8736,
            "type" : "SCALAR"
        }
    ],
    "bufferViews" : [
        {
            "buffer" : 0,
            "byteLength" : 68880,
            "byteOffset" : 0
        },
        {
            "buffer" : 0,
            "byteLength" : 68880,
            "byteOffset" : 68880
        },
        {
            "buffer" : 0,
            "byteLength" : 45920,
            "byteOffset" : 137760
        },
        {
            "buffer" : 0,
            "byteLength" : 17472,
            "byteOffset" : 183680
        },
        {
            "buffer" : 0,
            "byteLength" : 135300,
            "byteOffset" : 201152
        }
    ],
    "buffers" : [
        {
            "byteLength" : 336452,
            "uri" : "data:application/octet-stream;base64,"
        }
    ]
}
