{
    "asset" : {
        "generator" : "Khronos glTF Blender I/O v1.3.48",
        "version" : "2.0"
    },
    "scene" : 0,
    "scenes" : [
        {
            "name" : "Scene",
            "nodes" : [
                0
            ]
        }
    ],
    "nodes" : [
        {
            "mesh" : 0,
            "name" : "Plane.003",
            "translation" : [
                0.11931981146335602,
                0.5554473400115967,
                -0.02229956164956093
            ]
        }
    ],
    "materials" : [
        {
            "doubleSided" : true,
            "emissiveFactor" : [
                0,
                0,
                0
            ],
            "name" : "Bouquet",
            "pbrMetallicRoughness" : {
                "baseColorTexture" : {
                    "index" : 0,
                    "texCoord" : 0
                },
                "metallicFactor" : 0,
                "roughnessFactor" : 1
            }
        }
    ],
    "meshes" : [
        {
            "name" : "Plane.026",
            "primitives" : [
                {
                    "attributes" : {
                        "POSITION" : 0,
                        "NORMAL" : 1,
                        "TEXCOORD_0" : 2
                    },
                    "indices" : 3,
                    "material" : 0
                }
            ]
        }
    ],
    "textures" : [
        {
            "source" : 0
        }
    ],
    "images" : [
        {
            "bufferView" : 4,
            "mimeType" : "image/png",
            "name" : "bouquet"
        }
    ],
    "accessors" : [
        {
            "bufferView" : 0,
            "componentType" : 5126,
            "count" : 15727,
            "max" : [
                0.26913726329803467,
                0.1585192084312439,
                0.252945214509964
            ],
            "min" : [
                -0.25009098649024963,
                -0.4320104122161865,
                -0.23484250903129578
            ],
            "type" : "VEC3"
        },
        {
            "bufferView" : 1,
            "componentType" : 5126,
            "count" : 15727,
            "type" : "VEC3"
        },
        {
            "bufferView" : 2,
            "componentType" : 5126,
            "count" : 15727,
            "type" : "VEC2"
        },
        {
            "bufferView" : 3,
            "componentType" : 5123,
            "count" : 46842,
            "type" : "SCALAR"
        }
    ],
    "bufferViews" : [
        {
            "buffer" : 0,
            "byteLength" : 188724,
            "byteOffset" : 0
        },
        {
            "buffer" : 0,
            "byteLength" : 188724,
            "byteOffset" : 188724
        },
        {
            "buffer" : 0,
            "byteLength" : 125816,
            "byteOffset" : 377448
        },
        {
            "buffer" : 0,
            "byteLength" : 93684,
            "byteOffset" : 503264
        },
        {
            "buffer" : 0,
            "byteLength" : 26653,
            "byteOffset" : 596948
        }
    ],
    "buffers" : [
        {
            "byteLength" : 623604,
            "uri" : "data:application/octet-stream;base64,"
        }
    ]
}
