{
    "asset" : {
        "generator" : "Khronos glTF Blender I/O v1.3.48",
        "version" : "2.0"
    },
    "scene" : 0,
    "scenes" : [
        {
            "name" : "Scene",
            "nodes" : [
                0
            ]
        }
    ],
    "nodes" : [
        {
            "mesh" : 0,
            "name" : "flower_1.003"
        }
    ],
    "materials" : [
        {
            "doubleSided" : true,
            "emissiveFactor" : [
                0,
                0,
                0
            ],
            "name" : "Material.018",
            "pbrMetallicRoughness" : {
                "baseColorTexture" : {
                    "index" : 0,
                    "texCoord" : 0
                },
                "metallicFactor" : 0,
                "roughnessFactor" : 1
            }
        }
    ],
    "meshes" : [
        {
            "name" : "Plane.033",
            "primitives" : [
                {
                    "attributes" : {
                        "POSITION" : 0,
                        "NORMAL" : 1,
                        "TEXCOORD_0" : 2
                    },
                    "indices" : 3,
                    "material" : 0
                }
            ]
        }
    ],
    "textures" : [
        {
            "source" : 0
        }
    ],
    "images" : [
        {
            "bufferView" : 4,
            "mimeType" : "image/jpeg",
            "name" : "bouquet2"
        }
    ],
    "accessors" : [
        {
            "bufferView" : 0,
            "componentType" : 5126,
            "count" : 976,
            "max" : [
                0.5554238557815552,
                0.5782968997955322,
                0.06691356003284454
            ],
            "min" : [
                0.2529904544353485,
                0.3268846869468689,
                -0.2271878570318222
            ],
            "type" : "VEC3"
        },
        {
            "bufferView" : 1,
            "componentType" : 5126,
            "count" : 976,
            "type" : "VEC3"
        },
        {
            "bufferView" : 2,
            "componentType" : 5126,
            "count" : 976,
            "type" : "VEC2"
        },
        {
            "bufferView" : 3,
            "componentType" : 5123,
            "count" : 996,
            "type" : "SCALAR"
        }
    ],
    "bufferViews" : [
        {
            "buffer" : 0,
            "byteLength" : 11712,
            "byteOffset" : 0
        },
        {
            "buffer" : 0,
            "byteLength" : 11712,
            "byteOffset" : 11712
        },
        {
            "buffer" : 0,
            "byteLength" : 7808,
            "byteOffset" : 23424
        },
        {
            "buffer" : 0,
            "byteLength" : 1992,
            "byteOffset" : 31232
        },
        {
            "buffer" : 0,
            "byteLength" : 35623,
            "byteOffset" : 33224
        }
    ],
    "buffers" : [
        {
            "byteLength" : 68848,
            "uri" : "data:application/octet-stream;base64,"
        }
    ]
}
