{
    "asset" : {
        "generator" : "Khronos glTF Blender I/O v1.3.48",
        "version" : "2.0"
    },
    "scene" : 0,
    "scenes" : [
        {
            "name" : "Scene",
            "nodes" : [
                0
            ]
        }
    ],
    "nodes" : [
        {
            "mesh" : 0,
            "name" : "Carousel.002"
        }
    ],
    "materials" : [
        {
            "doubleSided" : true,
            "emissiveFactor" : [
                0,
                0,
                0
            ],
            "name" : "Material.030",
            "pbrMetallicRoughness" : {
                "baseColorTexture" : {
                    "index" : 0,
                    "texCoord" : 0
                },
                "metallicFactor" : 0,
                "roughnessFactor" : 0.5
            }
        }
    ],
    "meshes" : [
        {
            "name" : "Carousel.002",
            "primitives" : [
                {
                    "attributes" : {
                        "POSITION" : 0,
                        "NORMAL" : 1,
                        "TEXCOORD_0" : 2
                    },
                    "indices" : 3,
                    "material" : 0
                }
            ]
        }
    ],
    "textures" : [
        {
            "source" : 0
        }
    ],
    "images" : [
        {
            "bufferView" : 4,
            "mimeType" : "image/png",
            "name" : "Untitled"
        }
    ],
    "accessors" : [
        {
            "bufferView" : 0,
            "componentType" : 5126,
            "count" : 3100,
            "max" : [
                -27.388845443725586,
                5.3375468254089355,
                7.431577205657959
            ],
            "min" : [
                -33.03483581542969,
                0.022423744201660156,
                1.785583734512329
            ],
            "type" : "VEC3"
        },
        {
            "bufferView" : 1,
            "componentType" : 5126,
            "count" : 3100,
            "type" : "VEC3"
        },
        {
            "bufferView" : 2,
            "componentType" : 5126,
            "count" : 3100,
            "type" : "VEC2"
        },
        {
            "bufferView" : 3,
            "componentType" : 5123,
            "count" : 3384,
            "type" : "SCALAR"
        }
    ],
    "bufferViews" : [
        {
            "buffer" : 0,
            "byteLength" : 37200,
            "byteOffset" : 0
        },
        {
            "buffer" : 0,
            "byteLength" : 37200,
            "byteOffset" : 37200
        },
        {
            "buffer" : 0,
            "byteLength" : 24800,
            "byteOffset" : 74400
        },
        {
            "buffer" : 0,
            "byteLength" : 6768,
            "byteOffset" : 99200
        },
        {
            "buffer" : 0,
            "byteLength" : 396472,
            "byteOffset" : 105968
        }
    ],
    "buffers" : [
        {
            "byteLength" : 502440,
            "uri" : "data:application/octet-stream;base64,"
        }
    ]
}
