{
    "asset" : {
        "generator" : "Khronos glTF Blender I/O v1.3.48",
        "version" : "2.0"
    },
    "scene" : 0,
    "scenes" : [
        {
            "name" : "Scene",
            "nodes" : [
                0
            ]
        }
    ],
    "nodes" : [
        {
            "mesh" : 0,
            "name" : "Carousel"
        }
    ],
    "materials" : [
        {
            "doubleSided" : true,
            "emissiveFactor" : [
                0,
                0,
                0
            ],
            "name" : "Material.030",
            "pbrMetallicRoughness" : {
                "baseColorTexture" : {
                    "index" : 0,
                    "texCoord" : 0
                },
                "metallicFactor" : 0,
                "roughnessFactor" : 0.5
            }
        }
    ],
    "meshes" : [
        {
            "name" : "Carousel",
            "primitives" : [
                {
                    "attributes" : {
                        "POSITION" : 0,
                        "NORMAL" : 1,
                        "TEXCOORD_0" : 2
                    },
                    "indices" : 3,
                    "material" : 0
                }
            ]
        }
    ],
    "textures" : [
        {
            "source" : 0
        }
    ],
    "images" : [
        {
            "bufferView" : 4,
            "mimeType" : "image/png",
            "name" : "Untitled"
        }
    ],
    "accessors" : [
        {
            "bufferView" : 0,
            "componentType" : 5126,
            "count" : 2444,
            "max" : [
                -27.254249572753906,
                5.328488826751709,
                7.328734397888184
            ],
            "min" : [
                -32.90024185180664,
                0.0133657306432724,
                1.6827409267425537
            ],
            "type" : "VEC3"
        },
        {
            "bufferView" : 1,
            "componentType" : 5126,
            "count" : 2444,
            "type" : "VEC3"
        },
        {
            "bufferView" : 2,
            "componentType" : 5126,
            "count" : 2444,
            "type" : "VEC2"
        },
        {
            "bufferView" : 3,
            "componentType" : 5123,
            "count" : 3384,
            "type" : "SCALAR"
        }
    ],
    "bufferViews" : [
        {
            "buffer" : 0,
            "byteLength" : 29328,
            "byteOffset" : 0
        },
        {
            "buffer" : 0,
            "byteLength" : 29328,
            "byteOffset" : 29328
        },
        {
            "buffer" : 0,
            "byteLength" : 19552,
            "byteOffset" : 58656
        },
        {
            "buffer" : 0,
            "byteLength" : 6768,
            "byteOffset" : 78208
        },
        {
            "buffer" : 0,
            "byteLength" : 396472,
            "byteOffset" : 84976
        }
    ],
    "buffers" : [
        {
            "byteLength" : 481448,
            "uri" : "data:application/octet-stream;base64,"
        }
    ]
}
