{
    "asset" : {
        "generator" : "Khronos glTF Blender I/O v1.3.48",
        "version" : "2.0"
    },
    "scene" : 0,
    "scenes" : [
        {
            "name" : "Scene",
            "nodes" : [
                0
            ]
        }
    ],
    "nodes" : [
        {
            "mesh" : 0,
            "name" : "Goopie DO NOT ADD ANIMATIONS"
        }
    ],
    "materials" : [
        {
            "doubleSided" : true,
            "emissiveFactor" : [
                0,
                0,
                0
            ],
            "name" : "Material.001",
            "pbrMetallicRoughness" : {
                "baseColorTexture" : {
                    "index" : 0,
                    "texCoord" : 0
                },
                "metallicFactor" : 0,
                "roughnessFactor" : 1
            }
        }
    ],
    "meshes" : [
        {
            "name" : "Goop.005",
            "primitives" : [
                {
                    "attributes" : {
                        "POSITION" : 0,
                        "NORMAL" : 1,
                        "TEXCOORD_0" : 2
                    },
                    "indices" : 3,
                    "material" : 0
                }
            ]
        }
    ],
    "textures" : [
        {
            "source" : 0
        }
    ],
    "images" : [
        {
            "bufferView" : 4,
            "mimeType" : "image/png",
            "name" : "GoopTexture"
        }
    ],
    "accessors" : [
        {
            "bufferView" : 0,
            "componentType" : 5126,
            "count" : 409,
            "max" : [
                0.20701998472213745,
                0.7121906876564026,
                0.2038625329732895
            ],
            "min" : [
                -0.1996450424194336,
                0.00020452751778066158,
                -0.44722723960876465
            ],
            "type" : "VEC3"
        },
        {
            "bufferView" : 1,
            "componentType" : 5126,
            "count" : 409,
            "type" : "VEC3"
        },
        {
            "bufferView" : 2,
            "componentType" : 5126,
            "count" : 409,
            "type" : "VEC2"
        },
        {
            "bufferView" : 3,
            "componentType" : 5123,
            "count" : 1116,
            "type" : "SCALAR"
        }
    ],
    "bufferViews" : [
        {
            "buffer" : 0,
            "byteLength" : 4908,
            "byteOffset" : 0
        },
        {
            "buffer" : 0,
            "byteLength" : 4908,
            "byteOffset" : 4908
        },
        {
            "buffer" : 0,
            "byteLength" : 3272,
            "byteOffset" : 9816
        },
        {
            "buffer" : 0,
            "byteLength" : 2232,
            "byteOffset" : 13088
        },
        {
            "buffer" : 0,
            "byteLength" : 199127,
            "byteOffset" : 15320
        }
    ],
    "buffers" : [
        {
            "byteLength" : 214448,
            "uri" : "data:application/octet-stream;base64,"
        }
    ]
}
