{
    "asset" : {
        "generator" : "Khronos glTF Blender I/O v1.3.48",
        "version" : "2.0"
    },
    "scene" : 0,
    "scenes" : [
        {
            "name" : "Scene",
            "nodes" : [
                0
            ]
        }
    ],
    "nodes" : [
        {
            "mesh" : 0,
            "name" : "Goopie DO NOT ADD ANIMATIONS.004"
        }
    ],
    "materials" : [
        {
            "doubleSided" : true,
            "emissiveFactor" : [
                0,
                0,
                0
            ],
            "name" : "Material.032",
            "pbrMetallicRoughness" : {
                "baseColorTexture" : {
                    "index" : 0,
                    "texCoord" : 0
                },
                "metallicFactor" : 0,
                "roughnessFactor" : 0.5
            }
        }
    ],
    "meshes" : [
        {
            "name" : "Goop.001",
            "primitives" : [
                {
                    "attributes" : {
                        "POSITION" : 0,
                        "NORMAL" : 1,
                        "TEXCOORD_0" : 2
                    },
                    "indices" : 3,
                    "material" : 0
                }
            ]
        }
    ],
    "textures" : [
        {
            "source" : 0
        }
    ],
    "images" : [
        {
            "bufferView" : 4,
            "mimeType" : "image/png",
            "name" : "Untitled"
        }
    ],
    "accessors" : [
        {
            "bufferView" : 0,
            "componentType" : 5126,
            "count" : 626,
            "max" : [
                0.17464502155780792,
                0.9997063875198364,
                0.23635070025920868
            ],
            "min" : [
                -0.17464502155780792,
                0.4936882555484772,
                -0.23941513895988464
            ],
            "type" : "VEC3"
        },
        {
            "bufferView" : 1,
            "componentType" : 5126,
            "count" : 626,
            "type" : "VEC3"
        },
        {
            "bufferView" : 2,
            "componentType" : 5126,
            "count" : 626,
            "type" : "VEC2"
        },
        {
            "bufferView" : 3,
            "componentType" : 5123,
            "count" : 1464,
            "type" : "SCALAR"
        }
    ],
    "bufferViews" : [
        {
            "buffer" : 0,
            "byteLength" : 7512,
            "byteOffset" : 0
        },
        {
            "buffer" : 0,
            "byteLength" : 7512,
            "byteOffset" : 7512
        },
        {
            "buffer" : 0,
            "byteLength" : 5008,
            "byteOffset" : 15024
        },
        {
            "buffer" : 0,
            "byteLength" : 2928,
            "byteOffset" : 20032
        },
        {
            "buffer" : 0,
            "byteLength" : 213940,
            "byteOffset" : 22960
        }
    ],
    "buffers" : [
        {
            "byteLength" : 236900,
            "uri" : "data:application/octet-stream;base64,"
        }
    ]
}
