{
    "asset" : {
        "generator" : "Khronos glTF Blender I/O v1.3.48",
        "version" : "2.0"
    },
    "scene" : 0,
    "scenes" : [
        {
            "name" : "Scene",
            "nodes" : [
                0
            ]
        }
    ],
    "nodes" : [
        {
            "mesh" : 0,
            "name" : "Goopie DO NOT ADD ANIMATIONS.003"
        }
    ],
    "materials" : [
        {
            "doubleSided" : true,
            "emissiveFactor" : [
                0,
                0,
                0
            ],
            "name" : "Material.023",
            "pbrMetallicRoughness" : {
                "baseColorTexture" : {
                    "index" : 0,
                    "texCoord" : 0
                },
                "metallicFactor" : 0,
                "roughnessFactor" : 0.5
            }
        }
    ],
    "meshes" : [
        {
            "name" : "Goop.016",
            "primitives" : [
                {
                    "attributes" : {
                        "POSITION" : 0,
                        "NORMAL" : 1,
                        "TEXCOORD_0" : 2
                    },
                    "indices" : 3,
                    "material" : 0
                }
            ]
        }
    ],
    "textures" : [
        {
            "source" : 0
        }
    ],
    "images" : [
        {
            "bufferView" : 4,
            "mimeType" : "image/png",
            "name" : "Untitled"
        }
    ],
    "accessors" : [
        {
            "bufferView" : 0,
            "componentType" : 5126,
            "count" : 220,
            "max" : [
                0.2158496230840683,
                0.5173521637916565,
                0.47621390223503113
            ],
            "min" : [
                -0.21584974229335785,
                0.025002077221870422,
                -0.2138381153345108
            ],
            "type" : "VEC3"
        },
        {
            "bufferView" : 1,
            "componentType" : 5126,
            "count" : 220,
            "type" : "VEC3"
        },
        {
            "bufferView" : 2,
            "componentType" : 5126,
            "count" : 220,
            "type" : "VEC2"
        },
        {
            "bufferView" : 3,
            "componentType" : 5123,
            "count" : 822,
            "type" : "SCALAR"
        }
    ],
    "bufferViews" : [
        {
            "buffer" : 0,
            "byteLength" : 2640,
            "byteOffset" : 0
        },
        {
            "buffer" : 0,
            "byteLength" : 2640,
            "byteOffset" : 2640
        },
        {
            "buffer" : 0,
            "byteLength" : 1760,
            "byteOffset" : 5280
        },
        {
            "buffer" : 0,
            "byteLength" : 1644,
            "byteOffset" : 7040
        },
        {
            "buffer" : 0,
            "byteLength" : 213940,
            "byteOffset" : 8684
        }
    ],
    "buffers" : [
        {
            "byteLength" : 222624,
            "uri" : "data:application/octet-stream;base64,"
        }
    ]
}
