{
    "asset" : {
        "generator" : "Khronos glTF Blender I/O v1.3.48",
        "version" : "2.0"
    },
    "scene" : 0,
    "scenes" : [
        {
            "name" : "Scene",
            "nodes" : [
                0
            ]
        }
    ],
    "nodes" : [
        {
            "mesh" : 0,
            "name" : "ferriswheel.005",
            "rotation" : [
                0,
                0.018882056698203087,
                0,
                0.9998217225074768
            ]
        }
    ],
    "materials" : [
        {
            "doubleSided" : true,
            "emissiveFactor" : [
                0,
                0,
                0
            ],
            "name" : "Material.004",
            "pbrMetallicRoughness" : {
                "baseColorTexture" : {
                    "index" : 0,
                    "texCoord" : 0
                },
                "metallicFactor" : 0,
                "roughnessFactor" : 0.5
            }
        }
    ],
    "meshes" : [
        {
            "name" : "Circle.009",
            "primitives" : [
                {
                    "attributes" : {
                        "POSITION" : 0,
                        "NORMAL" : 1,
                        "TEXCOORD_0" : 2
                    },
                    "indices" : 3,
                    "material" : 0
                }
            ]
        }
    ],
    "textures" : [
        {
            "source" : 0
        }
    ],
    "images" : [
        {
            "bufferView" : 4,
            "mimeType" : "image/png",
            "name" : "karts"
        }
    ],
    "accessors" : [
        {
            "bufferView" : 0,
            "componentType" : 5126,
            "count" : 1700,
            "max" : [
                5.806357383728027,
                5.7564239501953125,
                1.7295082807540894
            ],
            "min" : [
                -5.806602954864502,
                -5.753616809844971,
                -1.7749955654144287
            ],
            "type" : "VEC3"
        },
        {
            "bufferView" : 1,
            "componentType" : 5126,
            "count" : 1700,
            "type" : "VEC3"
        },
        {
            "bufferView" : 2,
            "componentType" : 5126,
            "count" : 1700,
            "type" : "VEC2"
        },
        {
            "bufferView" : 3,
            "componentType" : 5123,
            "count" : 2550,
            "type" : "SCALAR"
        }
    ],
    "bufferViews" : [
        {
            "buffer" : 0,
            "byteLength" : 20400,
            "byteOffset" : 0
        },
        {
            "buffer" : 0,
            "byteLength" : 20400,
            "byteOffset" : 20400
        },
        {
            "buffer" : 0,
            "byteLength" : 13600,
            "byteOffset" : 40800
        },
        {
            "buffer" : 0,
            "byteLength" : 5100,
            "byteOffset" : 54400
        },
        {
            "buffer" : 0,
            "byteLength" : 576594,
            "byteOffset" : 59500
        }
    ],
    "buffers" : [
        {
            "byteLength" : 636096,
            "uri" : "data:application/octet-stream;base64,"
        }
    ]
}
