{
    "asset" : {
        "generator" : "Khronos glTF Blender I/O v1.4.40",
        "version" : "2.0"
    },
    "scene" : 0,
    "scenes" : [
        {
            "name" : "Scene",
            "nodes" : [
                0
            ]
        }
    ],
    "nodes" : [
        {
            "mesh" : 0,
            "name" : "AMERICAN FOOTBALL ARMOR"
        }
    ],
    "materials" : [
        {
            "doubleSided" : true,
            "name" : "Material.017",
            "pbrMetallicRoughness" : {
                "baseColorTexture" : {
                    "index" : 0,
                    "texCoord" : 0
                },
                "metallicFactor" : 0,
                "roughnessFactor" : 0.5
            }
        }
    ],
    "meshes" : [
        {
            "name" : "Cube.003",
            "primitives" : [
                {
                    "attributes" : {
                        "POSITION" : 0,
                        "NORMAL" : 1,
                        "TEXCOORD_0" : 2
                    },
                    "indices" : 3,
                    "material" : 0
                }
            ]
        }
    ],
    "textures" : [
        {
            "sampler" : 0,
            "source" : 0
        }
    ],
    "images" : [
        {
            "bufferView" : 4,
            "mimeType" : "image/png",
            "name" : "TextureBlocks"
        }
    ],
    "accessors" : [
        {
            "bufferView" : 0,
            "componentType" : 5126,
            "count" : 1356,
            "max" : [
                0.27928102016448975,
                0.533189594745636,
                0.252262681722641
            ],
            "min" : [
                -0.27928102016448975,
                0.18683704733848572,
                -0.23788419365882874
            ],
            "type" : "VEC3"
        },
        {
            "bufferView" : 1,
            "componentType" : 5126,
            "count" : 1356,
            "type" : "VEC3"
        },
        {
            "bufferView" : 2,
            "componentType" : 5126,
            "count" : 1356,
            "type" : "VEC2"
        },
        {
            "bufferView" : 3,
            "componentType" : 5123,
            "count" : 1980,
            "type" : "SCALAR"
        }
    ],
    "bufferViews" : [
        {
            "buffer" : 0,
            "byteLength" : 16272,
            "byteOffset" : 0
        },
        {
            "buffer" : 0,
            "byteLength" : 16272,
            "byteOffset" : 16272
        },
        {
            "buffer" : 0,
            "byteLength" : 10848,
            "byteOffset" : 32544
        },
        {
            "buffer" : 0,
            "byteLength" : 3960,
            "byteOffset" : 43392
        },
        {
            "buffer" : 0,
            "byteLength" : 25930,
            "byteOffset" : 47352
        }
    ],
    "samplers" : [
        {
            "magFilter" : 9729,
            "minFilter" : 9986
        }
    ],
    "buffers" : [
        {
            "byteLength" : 73284,
            "uri" : "data:application/octet-stream;base64,"
        }
    ]
}
