{
    "asset" : {
        "generator" : "Khronos glTF Blender I/O v1.3.48",
        "version" : "2.0"
    },
    "scene" : 0,
    "scenes" : [
        {
            "name" : "Scene",
            "nodes" : [
                0
            ]
        }
    ],
    "nodes" : [
        {
            "mesh" : 0,
            "name" : "GoopieBlock1"
        }
    ],
    "materials" : [
        {
            "doubleSided" : true,
            "emissiveFactor" : [
                0,
                0,
                0
            ],
            "name" : "Material.002",
            "pbrMetallicRoughness" : {
                "baseColorTexture" : {
                    "index" : 0,
                    "texCoord" : 0
                },
                "metallicFactor" : 0,
                "roughnessFactor" : 1
            }
        }
    ],
    "meshes" : [
        {
            "name" : "Goop.016",
            "primitives" : [
                {
                    "attributes" : {
                        "POSITION" : 0,
                        "NORMAL" : 1,
                        "TEXCOORD_0" : 2
                    },
                    "indices" : 3,
                    "material" : 0
                }
            ]
        }
    ],
    "textures" : [
        {
            "source" : 0
        }
    ],
    "images" : [
        {
            "bufferView" : 4,
            "mimeType" : "image/png",
            "name" : "GoopTextureBlocks"
        }
    ],
    "accessors" : [
        {
            "bufferView" : 0,
            "componentType" : 5126,
            "count" : 42184,
            "max" : [
                29.791046142578125,
                6.206461429595947,
                18.399497985839844
            ],
            "min" : [
                -33.902809143066406,
                0.413726270198822,
                -18.46756362915039
            ],
            "type" : "VEC3"
        },
        {
            "bufferView" : 1,
            "componentType" : 5126,
            "count" : 42184,
            "type" : "VEC3"
        },
        {
            "bufferView" : 2,
            "componentType" : 5126,
            "count" : 42184,
            "type" : "VEC2"
        },
        {
            "bufferView" : 3,
            "componentType" : 5123,
            "count" : 120390,
            "type" : "SCALAR"
        }
    ],
    "bufferViews" : [
        {
            "buffer" : 0,
            "byteLength" : 506208,
            "byteOffset" : 0
        },
        {
            "buffer" : 0,
            "byteLength" : 506208,
            "byteOffset" : 506208
        },
        {
            "buffer" : 0,
            "byteLength" : 337472,
            "byteOffset" : 1012416
        },
        {
            "buffer" : 0,
            "byteLength" : 240780,
            "byteOffset" : 1349888
        },
        {
            "buffer" : 0,
            "byteLength" : 11191,
            "byteOffset" : 1590668
        }
    ],
    "buffers" : [
        {
            "byteLength" : 1601860,
            "uri" : "data:application/octet-stream;base64,"
        }
    ]
}
