{
    "asset" : {
        "generator" : "Khronos glTF Blender I/O v1.0.5",
        "version" : "2.0"
    },
    "scene" : 0,
    "scenes" : [
        {
            "name" : "Scene",
            "nodes" : [
                0
            ]
        }
    ],
    "nodes" : [
        {
            "mesh" : 0,
            "name" : "Goop"
        }
    ],
    "materials" : [
        {
            "doubleSided" : true,
            "name" : "Material",
            "pbrMetallicRoughness" : {
                "baseColorFactor" : [
                    0.800000011920929,
                    0.800000011920929,
                    0.800000011920929,
                    1
                ],
                "metallicFactor" : 0,
                "roughnessFactor" : 0.5
            }
        },
        {
            "doubleSided" : true,
            "name" : "Material.002",
            "pbrMetallicRoughness" : {
                "baseColorFactor" : [
                    0.017641957849264145,
                    0.017641955986618996,
                    0.017641957849264145,
                    1
                ],
                "metallicFactor" : 0,
                "roughnessFactor" : 0.5
            }
        },
        {
            "doubleSided" : true,
            "name" : "Material.004",
            "pbrMetallicRoughness" : {
                "baseColorFactor" : [
                    0.9822508096694946,
                    0.32777804136276245,
                    0.06301005184650421,
                    1
                ],
                "metallicFactor" : 0,
                "roughnessFactor" : 0.5
            }
        }
    ],
    "meshes" : [
        {
            "name" : "Goop",
            "primitives" : [
                {
                    "attributes" : {
                        "POSITION" : 0,
                        "NORMAL" : 1
                    },
                    "indices" : 2,
                    "material" : 0
                },
                {
                    "attributes" : {
                        "POSITION" : 3,
                        "NORMAL" : 4
                    },
                    "indices" : 5,
                    "material" : 1
                },
                {
                    "attributes" : {
                        "POSITION" : 6,
                        "NORMAL" : 7
                    },
                    "indices" : 8,
                    "material" : 2
                }
            ]
        }
    ],
    "accessors" : [
        {
            "bufferView" : 0,
            "componentType" : 5126,
            "count" : 53,
            "max" : [
                0.16481749713420868,
                0.6902113556861877,
                0.1601722538471222
            ],
            "min" : [
                -0.16481749713420868,
                0.07590708136558533,
                0.035107988864183426
            ],
            "type" : "VEC3"
        },
        {
            "bufferView" : 1,
            "componentType" : 5126,
            "count" : 53,
            "type" : "VEC3"
        },
        {
            "bufferView" : 2,
            "componentType" : 5123,
            "count" : 183,
            "type" : "SCALAR"
        },
        {
            "bufferView" : 3,
            "componentType" : 5126,
            "count" : 152,
            "max" : [
                0.2853589653968811,
                0.7131460309028625,
                0.10826007276773453
            ],
            "min" : [
                -0.2853589653968811,
                0.07562530040740967,
                -0.20056530833244324
            ],
            "type" : "VEC3"
        },
        {
            "bufferView" : 4,
            "componentType" : 5126,
            "count" : 152,
            "type" : "VEC3"
        },
        {
            "bufferView" : 5,
            "componentType" : 5123,
            "count" : 537,
            "type" : "SCALAR"
        },
        {
            "bufferView" : 6,
            "componentType" : 5126,
            "count" : 61,
            "max" : [
                0.14873003959655762,
                0.6344556212425232,
                0.1861647665500641
            ],
            "min" : [
                -0.14191226661205292,
                0.001159757375717163,
                -0.08047883212566376
            ],
            "type" : "VEC3"
        },
        {
            "bufferView" : 7,
            "componentType" : 5126,
            "count" : 61,
            "type" : "VEC3"
        },
        {
            "bufferView" : 8,
            "componentType" : 5123,
            "count" : 258,
            "type" : "SCALAR"
        }
    ],
    "bufferViews" : [
        {
            "buffer" : 0,
            "byteLength" : 636,
            "byteOffset" : 0
        },
        {
            "buffer" : 0,
            "byteLength" : 636,
            "byteOffset" : 636
        },
        {
            "buffer" : 0,
            "byteLength" : 366,
            "byteOffset" : 1272
        },
        {
            "buffer" : 0,
            "byteLength" : 1824,
            "byteOffset" : 1640
        },
        {
            "buffer" : 0,
            "byteLength" : 1824,
            "byteOffset" : 3464
        },
        {
            "buffer" : 0,
            "byteLength" : 1074,
            "byteOffset" : 5288
        },
        {
            "buffer" : 0,
            "byteLength" : 732,
            "byteOffset" : 6364
        },
        {
            "buffer" : 0,
            "byteLength" : 732,
            "byteOffset" : 7096
        },
        {
            "buffer" : 0,
            "byteLength" : 516,
            "byteOffset" : 7828
        }
    ],
    "buffers" : [
        {
            "byteLength" : 8344,
            "uri" : "data:application/octet-stream;base64,"
        }
    ]
}
