{
    "asset" : {
        "generator" : "Khronos glTF Blender I/O v1.3.48",
        "version" : "2.0"
    },
    "scene" : 0,
    "scenes" : [
        {
            "name" : "Scene",
            "nodes" : [
                0
            ]
        }
    ],
    "nodes" : [
        {
            "mesh" : 0,
            "name" : "GoopieBlock3"
        }
    ],
    "materials" : [
        {
            "doubleSided" : true,
            "emissiveFactor" : [
                0,
                0,
                0
            ],
            "name" : "Material.002",
            "pbrMetallicRoughness" : {
                "baseColorTexture" : {
                    "index" : 0,
                    "texCoord" : 0
                },
                "metallicFactor" : 0,
                "roughnessFactor" : 1
            }
        }
    ],
    "meshes" : [
        {
            "name" : "Goop.004",
            "primitives" : [
                {
                    "attributes" : {
                        "POSITION" : 0,
                        "NORMAL" : 1,
                        "TEXCOORD_0" : 2
                    },
                    "indices" : 3,
                    "material" : 0
                }
            ]
        }
    ],
    "textures" : [
        {
            "source" : 0
        }
    ],
    "images" : [
        {
            "bufferView" : 4,
            "mimeType" : "image/png",
            "name" : "GoopTextureBlocks"
        }
    ],
    "accessors" : [
        {
            "bufferView" : 0,
            "componentType" : 5126,
            "count" : 70380,
            "max" : [
                33.88768768310547,
                6.226113796234131,
                18.475902557373047
            ],
            "min" : [
                -33.90281677246094,
                -0.07600408792495728,
                -18.46756362915039
            ],
            "type" : "VEC3"
        },
        {
            "bufferView" : 1,
            "componentType" : 5126,
            "count" : 70380,
            "type" : "VEC3"
        },
        {
            "bufferView" : 2,
            "componentType" : 5126,
            "count" : 70380,
            "type" : "VEC2"
        },
        {
            "bufferView" : 3,
            "componentType" : 5125,
            "count" : 211476,
            "type" : "SCALAR"
        }
    ],
    "bufferViews" : [
        {
            "buffer" : 0,
            "byteLength" : 844560,
            "byteOffset" : 0
        },
        {
            "buffer" : 0,
            "byteLength" : 844560,
            "byteOffset" : 844560
        },
        {
            "buffer" : 0,
            "byteLength" : 563040,
            "byteOffset" : 1689120
        },
        {
            "buffer" : 0,
            "byteLength" : 845904,
            "byteOffset" : 2252160
        },
        {
            "buffer" : 0,
            "byteLength" : 11191,
            "byteOffset" : 3098064
        }
    ],
    "buffers" : [
        {
            "byteLength" : 3109256,
            "uri" : "data:application/octet-stream;base64,"
        }
    ]
}
