{
    "asset" : {
        "generator" : "Khronos glTF Blender I/O v1.3.48",
        "version" : "2.0"
    },
    "scene" : 0,
    "scenes" : [
        {
            "name" : "Scene",
            "nodes" : [
                0
            ]
        }
    ],
    "nodes" : [
        {
            "mesh" : 0,
            "name" : "Seat Base.001"
        }
    ],
    "materials" : [
        {
            "doubleSided" : true,
            "emissiveFactor" : [
                0,
                0,
                0
            ],
            "name" : "SG Material.001",
            "pbrMetallicRoughness" : {
                "baseColorTexture" : {
                    "index" : 0,
                    "texCoord" : 0
                },
                "metallicFactor" : 0,
                "roughnessFactor" : 1
            }
        }
    ],
    "meshes" : [
        {
            "name" : "Cube.004",
            "primitives" : [
                {
                    "attributes" : {
                        "POSITION" : 0,
                        "NORMAL" : 1,
                        "TEXCOORD_0" : 2
                    },
                    "indices" : 3,
                    "material" : 0
                }
            ]
        }
    ],
    "textures" : [
        {
            "source" : 0
        }
    ],
    "images" : [
        {
            "bufferView" : 4,
            "mimeType" : "image/png",
            "name" : "globe_texture"
        }
    ],
    "accessors" : [
        {
            "bufferView" : 0,
            "componentType" : 5126,
            "count" : 712,
            "max" : [
                37.48433303833008,
                0.2724815011024475,
                30.43872833251953
            ],
            "min" : [
                -37.17924118041992,
                -0.4850618243217468,
                -44.22484588623047
            ],
            "type" : "VEC3"
        },
        {
            "bufferView" : 1,
            "componentType" : 5126,
            "count" : 712,
            "type" : "VEC3"
        },
        {
            "bufferView" : 2,
            "componentType" : 5126,
            "count" : 712,
            "type" : "VEC2"
        },
        {
            "bufferView" : 3,
            "componentType" : 5123,
            "count" : 1368,
            "type" : "SCALAR"
        }
    ],
    "bufferViews" : [
        {
            "buffer" : 0,
            "byteLength" : 8544,
            "byteOffset" : 0
        },
        {
            "buffer" : 0,
            "byteLength" : 8544,
            "byteOffset" : 8544
        },
        {
            "buffer" : 0,
            "byteLength" : 5696,
            "byteOffset" : 17088
        },
        {
            "buffer" : 0,
            "byteLength" : 2736,
            "byteOffset" : 22784
        },
        {
            "buffer" : 0,
            "byteLength" : 90080,
            "byteOffset" : 25520
        }
    ],
    "buffers" : [
        {
            "byteLength" : 115600,
            "uri" : "data:application/octet-stream;base64,"
        }
    ]
}
