{
    "asset" : {
        "generator" : "Khronos glTF Blender I/O v1.3.48",
        "version" : "2.0"
    },
    "scene" : 0,
    "scenes" : [
        {
            "name" : "Scene",
            "nodes" : [
                0
            ]
        }
    ],
    "nodes" : [
        {
            "mesh" : 0,
            "name" : "Cube.069"
        }
    ],
    "materials" : [
        {
            "doubleSided" : true,
            "emissiveFactor" : [
                0,
                0,
                0
            ],
            "name" : "house3",
            "pbrMetallicRoughness" : {
                "baseColorTexture" : {
                    "index" : 0,
                    "texCoord" : 0
                },
                "metallicFactor" : 0,
                "roughnessFactor" : 1
            }
        }
    ],
    "meshes" : [
        {
            "name" : "Cube.111",
            "primitives" : [
                {
                    "attributes" : {
                        "POSITION" : 0,
                        "NORMAL" : 1,
                        "TEXCOORD_0" : 2
                    },
                    "indices" : 3,
                    "material" : 0
                }
            ]
        }
    ],
    "textures" : [
        {
            "source" : 0
        }
    ],
    "images" : [
        {
            "bufferView" : 4,
            "mimeType" : "image/png",
            "name" : "house 32"
        }
    ],
    "accessors" : [
        {
            "bufferView" : 0,
            "componentType" : 5126,
            "count" : 1348,
            "max" : [
                -28.10262680053711,
                8.916202545166016,
                -10.175345420837402
            ],
            "min" : [
                -33.72523880004883,
                1.7423195838928223,
                -15.649092674255371
            ],
            "type" : "VEC3"
        },
        {
            "bufferView" : 1,
            "componentType" : 5126,
            "count" : 1348,
            "type" : "VEC3"
        },
        {
            "bufferView" : 2,
            "componentType" : 5126,
            "count" : 1348,
            "type" : "VEC2"
        },
        {
            "bufferView" : 3,
            "componentType" : 5123,
            "count" : 2034,
            "type" : "SCALAR"
        }
    ],
    "bufferViews" : [
        {
            "buffer" : 0,
            "byteLength" : 16176,
            "byteOffset" : 0
        },
        {
            "buffer" : 0,
            "byteLength" : 16176,
            "byteOffset" : 16176
        },
        {
            "buffer" : 0,
            "byteLength" : 10784,
            "byteOffset" : 32352
        },
        {
            "buffer" : 0,
            "byteLength" : 4068,
            "byteOffset" : 43136
        },
        {
            "buffer" : 0,
            "byteLength" : 265047,
            "byteOffset" : 47204
        }
    ],
    "buffers" : [
        {
            "byteLength" : 312252,
            "uri" : "data:application/octet-stream;base64,"
        }
    ]
}
