{
    "asset" : {
        "generator" : "Khronos glTF Blender I/O v1.0.5",
        "version" : "2.0"
    },
    "scene" : 0,
    "scenes" : [
        {
            "name" : "Scene",
            "nodes" : [
                0
            ]
        }
    ],
    "nodes" : [
        {
            "mesh" : 0,
            "name" : "hooman_Plane.004",
            "rotation" : [
                0.7071068286895752,
                0,
                0,
                0.7071067094802856
            ]
        }
    ],
    "materials" : [
        {
            "doubleSided" : true,
            "name" : "Material.001",
            "pbrMetallicRoughness" : {
                "baseColorTexture" : {
                    "index" : 0,
                    "texCoord" : 0
                },
                "metallicFactor" : 0,
                "roughnessFactor" : 0.5
            }
        }
    ],
    "meshes" : [
        {
            "name" : "hooman_Plane.004",
            "primitives" : [
                {
                    "attributes" : {
                        "POSITION" : 0,
                        "NORMAL" : 1,
                        "TEXCOORD_0" : 2
                    },
                    "indices" : 3,
                    "material" : 0
                }
            ]
        }
    ],
    "textures" : [
        {
            "source" : 0
        }
    ],
    "images" : [
        {
            "bufferView" : 4,
            "mimeType" : "image/png",
            "name" : "IceSkater"
        }
    ],
    "accessors" : [
        {
            "bufferView" : 0,
            "componentType" : 5126,
            "count" : 987,
            "max" : [
                0.5109339952468872,
                0.6115360260009766,
                0.12244799733161926
            ],
            "min" : [
                -0.5109339952468872,
                -0.7098749876022339,
                -0.14181199669837952
            ],
            "type" : "VEC3"
        },
        {
            "bufferView" : 1,
            "componentType" : 5126,
            "count" : 987,
            "type" : "VEC3"
        },
        {
            "bufferView" : 2,
            "componentType" : 5126,
            "count" : 987,
            "type" : "VEC2"
        },
        {
            "bufferView" : 3,
            "componentType" : 5123,
            "count" : 2463,
            "type" : "SCALAR"
        }
    ],
    "bufferViews" : [
        {
            "buffer" : 0,
            "byteLength" : 11844,
            "byteOffset" : 0
        },
        {
            "buffer" : 0,
            "byteLength" : 11844,
            "byteOffset" : 11844
        },
        {
            "buffer" : 0,
            "byteLength" : 7896,
            "byteOffset" : 23688
        },
        {
            "buffer" : 0,
            "byteLength" : 4926,
            "byteOffset" : 31584
        },
        {
            "buffer" : 0,
            "byteLength" : 58290,
            "byteOffset" : 36512
        }
    ],
    "buffers" : [
        {
            "byteLength" : 94804,
            "uri" : "data:application/octet-stream;base64,"
        }
    ]
}
