{
    "asset" : {
        "generator" : "Khronos glTF Blender I/O v1.3.48",
        "version" : "2.0"
    },
    "scene" : 0,
    "scenes" : [
        {
            "name" : "Scene",
            "nodes" : [
                0
            ]
        }
    ],
    "nodes" : [
        {
            "mesh" : 0,
            "name" : "lamp join"
        }
    ],
    "materials" : [
        {
            "doubleSided" : true,
            "emissiveFactor" : [
                0,
                0,
                0
            ],
            "name" : "Lamp",
            "pbrMetallicRoughness" : {
                "baseColorTexture" : {
                    "index" : 0,
                    "texCoord" : 0
                },
                "metallicFactor" : 0,
                "roughnessFactor" : 1
            }
        }
    ],
    "meshes" : [
        {
            "name" : "Cylinder.021",
            "primitives" : [
                {
                    "attributes" : {
                        "POSITION" : 0,
                        "NORMAL" : 1,
                        "TEXCOORD_0" : 2
                    },
                    "indices" : 3,
                    "material" : 0
                }
            ]
        }
    ],
    "textures" : [
        {
            "source" : 0
        }
    ],
    "images" : [
        {
            "bufferView" : 4,
            "mimeType" : "image/png",
            "name" : "lamp"
        }
    ],
    "accessors" : [
        {
            "bufferView" : 0,
            "componentType" : 5126,
            "count" : 3972,
            "max" : [
                20.03700065612793,
                14.681100845336914,
                -16.037307739257812
            ],
            "min" : [
                -19.913652420043945,
                -0.06180286407470703,
                -29.33427619934082
            ],
            "type" : "VEC3"
        },
        {
            "bufferView" : 1,
            "componentType" : 5126,
            "count" : 3972,
            "type" : "VEC3"
        },
        {
            "bufferView" : 2,
            "componentType" : 5126,
            "count" : 3972,
            "type" : "VEC2"
        },
        {
            "bufferView" : 3,
            "componentType" : 5123,
            "count" : 6174,
            "type" : "SCALAR"
        }
    ],
    "bufferViews" : [
        {
            "buffer" : 0,
            "byteLength" : 47664,
            "byteOffset" : 0
        },
        {
            "buffer" : 0,
            "byteLength" : 47664,
            "byteOffset" : 47664
        },
        {
            "buffer" : 0,
            "byteLength" : 31776,
            "byteOffset" : 95328
        },
        {
            "buffer" : 0,
            "byteLength" : 12348,
            "byteOffset" : 127104
        },
        {
            "buffer" : 0,
            "byteLength" : 53494,
            "byteOffset" : 139452
        }
    ],
    "buffers" : [
        {
            "byteLength" : 192948,
            "uri" : "data:application/octet-stream;base64,"
        }
    ]
}
