{
    "asset" : {
        "generator" : "Khronos glTF Blender I/O v1.3.48",
        "version" : "2.0"
    },
    "scene" : 0,
    "scenes" : [
        {
            "name" : "Scene",
            "nodes" : [
                0
            ]
        }
    ],
    "nodes" : [
        {
            "mesh" : 0,
            "name" : "lamp join"
        }
    ],
    "materials" : [
        {
            "doubleSided" : true,
            "emissiveFactor" : [
                0,
                0,
                0
            ],
            "name" : "Lamp",
            "pbrMetallicRoughness" : {
                "baseColorTexture" : {
                    "index" : 0,
                    "texCoord" : 0
                },
                "metallicFactor" : 0,
                "roughnessFactor" : 1
            }
        }
    ],
    "meshes" : [
        {
            "name" : "Cylinder.021",
            "primitives" : [
                {
                    "attributes" : {
                        "POSITION" : 0,
                        "NORMAL" : 1,
                        "TEXCOORD_0" : 2
                    },
                    "indices" : 3,
                    "material" : 0
                }
            ]
        }
    ],
    "textures" : [
        {
            "source" : 0
        }
    ],
    "images" : [
        {
            "bufferView" : 4,
            "mimeType" : "image/png",
            "name" : "lamp"
        }
    ],
    "accessors" : [
        {
            "bufferView" : 0,
            "componentType" : 5126,
            "count" : 5348,
            "max" : [
                28.754981994628906,
                14.681100845336914,
                1.5732439756393433
            ],
            "min" : [
                -28.16606903076172,
                -0.1338663101196289,
                -29.33427619934082
            ],
            "type" : "VEC3"
        },
        {
            "bufferView" : 1,
            "componentType" : 5126,
            "count" : 5348,
            "type" : "VEC3"
        },
        {
            "bufferView" : 2,
            "componentType" : 5126,
            "count" : 5348,
            "type" : "VEC2"
        },
        {
            "bufferView" : 3,
            "componentType" : 5123,
            "count" : 8310,
            "type" : "SCALAR"
        }
    ],
    "bufferViews" : [
        {
            "buffer" : 0,
            "byteLength" : 64176,
            "byteOffset" : 0
        },
        {
            "buffer" : 0,
            "byteLength" : 64176,
            "byteOffset" : 64176
        },
        {
            "buffer" : 0,
            "byteLength" : 42784,
            "byteOffset" : 128352
        },
        {
            "buffer" : 0,
            "byteLength" : 16620,
            "byteOffset" : 171136
        },
        {
            "buffer" : 0,
            "byteLength" : 53494,
            "byteOffset" : 187756
        }
    ],
    "buffers" : [
        {
            "byteLength" : 241252,
            "uri" : "data:application/octet-stream;base64,"
        }
    ]
}
