{
    "asset" : {
        "generator" : "Khronos glTF Blender I/O v1.3.48",
        "version" : "2.0"
    },
    "scene" : 0,
    "scenes" : [
        {
            "name" : "Scene",
            "nodes" : [
                0
            ]
        }
    ],
    "nodes" : [
        {
            "mesh" : 0,
            "name" : "house 1"
        }
    ],
    "materials" : [
        {
            "doubleSided" : true,
            "emissiveFactor" : [
                0,
                0,
                0
            ],
            "name" : "house 1",
            "pbrMetallicRoughness" : {
                "baseColorTexture" : {
                    "index" : 0,
                    "texCoord" : 0
                },
                "metallicFactor" : 0,
                "roughnessFactor" : 1
            }
        }
    ],
    "meshes" : [
        {
            "name" : "Cube.050",
            "primitives" : [
                {
                    "attributes" : {
                        "POSITION" : 0,
                        "NORMAL" : 1,
                        "TEXCOORD_0" : 2
                    },
                    "indices" : 3,
                    "material" : 0
                }
            ]
        }
    ],
    "textures" : [
        {
            "source" : 0
        }
    ],
    "images" : [
        {
            "bufferView" : 4,
            "mimeType" : "image/png",
            "name" : "house 1"
        }
    ],
    "accessors" : [
        {
            "bufferView" : 0,
            "componentType" : 5126,
            "count" : 3535,
            "max" : [
                1.488399863243103,
                7.300711154937744,
                -17.6611385345459
            ],
            "min" : [
                -4.759860038757324,
                -0.010737419128417969,
                -22.981014251708984
            ],
            "type" : "VEC3"
        },
        {
            "bufferView" : 1,
            "componentType" : 5126,
            "count" : 3535,
            "type" : "VEC3"
        },
        {
            "bufferView" : 2,
            "componentType" : 5126,
            "count" : 3535,
            "type" : "VEC2"
        },
        {
            "bufferView" : 3,
            "componentType" : 5123,
            "count" : 5535,
            "type" : "SCALAR"
        }
    ],
    "bufferViews" : [
        {
            "buffer" : 0,
            "byteLength" : 42420,
            "byteOffset" : 0
        },
        {
            "buffer" : 0,
            "byteLength" : 42420,
            "byteOffset" : 42420
        },
        {
            "buffer" : 0,
            "byteLength" : 28280,
            "byteOffset" : 84840
        },
        {
            "buffer" : 0,
            "byteLength" : 11070,
            "byteOffset" : 113120
        },
        {
            "buffer" : 0,
            "byteLength" : 39879,
            "byteOffset" : 124192
        }
    ],
    "buffers" : [
        {
            "byteLength" : 164072,
            "uri" : "data:application/octet-stream;base64,"
        }
    ]
}
