{
    "asset" : {
        "generator" : "Khronos glTF Blender I/O v1.3.48",
        "version" : "2.0"
    },
    "scene" : 0,
    "scenes" : [
        {
            "name" : "Scene",
            "nodes" : [
                0
            ]
        }
    ],
    "nodes" : [
        {
            "mesh" : 0,
            "name" : "Cube.023"
        }
    ],
    "materials" : [
        {
            "doubleSided" : true,
            "emissiveFactor" : [
                0,
                0,
                0
            ],
            "name" : "SG Material",
            "pbrMetallicRoughness" : {
                "baseColorTexture" : {
                    "index" : 0,
                    "texCoord" : 0
                },
                "metallicFactor" : 0,
                "roughnessFactor" : 1
            }
        }
    ],
    "meshes" : [
        {
            "name" : "Cube.118",
            "primitives" : [
                {
                    "attributes" : {
                        "POSITION" : 0,
                        "NORMAL" : 1,
                        "TEXCOORD_0" : 2
                    },
                    "indices" : 3,
                    "material" : 0
                }
            ]
        }
    ],
    "textures" : [
        {
            "source" : 0
        }
    ],
    "images" : [
        {
            "bufferView" : 4,
            "mimeType" : "image/png",
            "name" : "globe texture"
        }
    ],
    "accessors" : [
        {
            "bufferView" : 0,
            "componentType" : 5126,
            "count" : 2695,
            "max" : [
                39.72208786010742,
                19.898605346679688,
                32.69832229614258
            ],
            "min" : [
                -41.093021392822266,
                -2.7375524044036865,
                -46.444984436035156
            ],
            "type" : "VEC3"
        },
        {
            "bufferView" : 1,
            "componentType" : 5126,
            "count" : 2695,
            "type" : "VEC3"
        },
        {
            "bufferView" : 2,
            "componentType" : 5126,
            "count" : 2695,
            "type" : "VEC2"
        },
        {
            "bufferView" : 3,
            "componentType" : 5123,
            "count" : 4842,
            "type" : "SCALAR"
        }
    ],
    "bufferViews" : [
        {
            "buffer" : 0,
            "byteLength" : 32340,
            "byteOffset" : 0
        },
        {
            "buffer" : 0,
            "byteLength" : 32340,
            "byteOffset" : 32340
        },
        {
            "buffer" : 0,
            "byteLength" : 21560,
            "byteOffset" : 64680
        },
        {
            "buffer" : 0,
            "byteLength" : 9684,
            "byteOffset" : 86240
        },
        {
            "buffer" : 0,
            "byteLength" : 90080,
            "byteOffset" : 95924
        }
    ],
    "buffers" : [
        {
            "byteLength" : 186004,
            "uri" : "data:application/octet-stream;base64,"
        }
    ]
}
