{
    "asset" : {
        "generator" : "Khronos glTF Blender I/O v1.3.48",
        "version" : "2.0"
    },
    "scene" : 0,
    "scenes" : [
        {
            "name" : "Scene",
            "nodes" : [
                0
            ]
        }
    ],
    "nodes" : [
        {
            "mesh" : 0,
            "name" : "Cube.080"
        }
    ],
    "materials" : [
        {
            "doubleSided" : true,
            "emissiveFactor" : [
                0,
                0,
                0
            ],
            "name" : "house 2",
            "pbrMetallicRoughness" : {
                "baseColorTexture" : {
                    "index" : 0,
                    "texCoord" : 0
                },
                "metallicFactor" : 0,
                "roughnessFactor" : 1
            }
        }
    ],
    "meshes" : [
        {
            "name" : "Cube.028",
            "primitives" : [
                {
                    "attributes" : {
                        "POSITION" : 0,
                        "NORMAL" : 1,
                        "TEXCOORD_0" : 2
                    },
                    "indices" : 3,
                    "material" : 0
                }
            ]
        }
    ],
    "textures" : [
        {
            "source" : 0
        }
    ],
    "images" : [
        {
            "bufferView" : 4,
            "mimeType" : "image/png",
            "name" : "house 2"
        }
    ],
    "accessors" : [
        {
            "bufferView" : 0,
            "componentType" : 5126,
            "count" : 2415,
            "max" : [
                12.516481399536133,
                6.453159332275391,
                -15.453771591186523
            ],
            "min" : [
                4.996036052703857,
                -0.1893939971923828,
                -20.75154685974121
            ],
            "type" : "VEC3"
        },
        {
            "bufferView" : 1,
            "componentType" : 5126,
            "count" : 2415,
            "type" : "VEC3"
        },
        {
            "bufferView" : 2,
            "componentType" : 5126,
            "count" : 2415,
            "type" : "VEC2"
        },
        {
            "bufferView" : 3,
            "componentType" : 5123,
            "count" : 3825,
            "type" : "SCALAR"
        }
    ],
    "bufferViews" : [
        {
            "buffer" : 0,
            "byteLength" : 28980,
            "byteOffset" : 0
        },
        {
            "buffer" : 0,
            "byteLength" : 28980,
            "byteOffset" : 28980
        },
        {
            "buffer" : 0,
            "byteLength" : 19320,
            "byteOffset" : 57960
        },
        {
            "buffer" : 0,
            "byteLength" : 7650,
            "byteOffset" : 77280
        },
        {
            "buffer" : 0,
            "byteLength" : 38443,
            "byteOffset" : 84932
        }
    ],
    "buffers" : [
        {
            "byteLength" : 123376,
            "uri" : "data:application/octet-stream;base64,"
        }
    ]
}
