{
    "asset" : {
        "generator" : "Khronos glTF Blender I/O v1.3.48",
        "version" : "2.0"
    },
    "scene" : 0,
    "scenes" : [
        {
            "name" : "Scene",
            "nodes" : [
                0
            ]
        }
    ],
    "nodes" : [
        {
            "mesh" : 0,
            "name" : "Goopie DO NOT ADD ANIMATIONS.006"
        }
    ],
    "materials" : [
        {
            "doubleSided" : true,
            "emissiveFactor" : [
                0,
                0,
                0
            ],
            "name" : "Material.036",
            "pbrMetallicRoughness" : {
                "baseColorTexture" : {
                    "index" : 0,
                    "texCoord" : 0
                },
                "metallicFactor" : 0,
                "roughnessFactor" : 0.5
            }
        }
    ],
    "meshes" : [
        {
            "name" : "Goop.010",
            "primitives" : [
                {
                    "attributes" : {
                        "POSITION" : 0,
                        "NORMAL" : 1,
                        "TEXCOORD_0" : 2
                    },
                    "indices" : 3,
                    "material" : 0
                }
            ]
        }
    ],
    "textures" : [
        {
            "source" : 0
        }
    ],
    "images" : [
        {
            "bufferView" : 4,
            "mimeType" : "image/png",
            "name" : "Untitled"
        }
    ],
    "accessors" : [
        {
            "bufferView" : 0,
            "componentType" : 5126,
            "count" : 426,
            "max" : [
                0.27060666680336,
                0.5533713698387146,
                0.315455824136734
            ],
            "min" : [
                -0.27060666680336,
                0.13560830056667328,
                -0.25155359506607056
            ],
            "type" : "VEC3"
        },
        {
            "bufferView" : 1,
            "componentType" : 5126,
            "count" : 426,
            "type" : "VEC3"
        },
        {
            "bufferView" : 2,
            "componentType" : 5126,
            "count" : 426,
            "type" : "VEC2"
        },
        {
            "bufferView" : 3,
            "componentType" : 5123,
            "count" : 1788,
            "type" : "SCALAR"
        }
    ],
    "bufferViews" : [
        {
            "buffer" : 0,
            "byteLength" : 5112,
            "byteOffset" : 0
        },
        {
            "buffer" : 0,
            "byteLength" : 5112,
            "byteOffset" : 5112
        },
        {
            "buffer" : 0,
            "byteLength" : 3408,
            "byteOffset" : 10224
        },
        {
            "buffer" : 0,
            "byteLength" : 3576,
            "byteOffset" : 13632
        },
        {
            "buffer" : 0,
            "byteLength" : 257193,
            "byteOffset" : 17208
        }
    ],
    "buffers" : [
        {
            "byteLength" : 274404,
            "uri" : "data:application/octet-stream;base64,"
        }
    ]
}
