{
    "asset" : {
        "generator" : "Khronos glTF Blender I/O v1.3.48",
        "version" : "2.0"
    },
    "scene" : 0,
    "scenes" : [
        {
            "name" : "Scene",
            "nodes" : [
                0
            ]
        }
    ],
    "nodes" : [
        {
            "mesh" : 0,
            "name" : "Sphere.004"
        }
    ],
    "materials" : [
        {
            "doubleSided" : true,
            "emissiveFactor" : [
                0,
                0,
                0
            ],
            "name" : "Material.038",
            "pbrMetallicRoughness" : {
                "baseColorTexture" : {
                    "index" : 0,
                    "texCoord" : 0
                },
                "metallicFactor" : 0,
                "roughnessFactor" : 0.5
            }
        }
    ],
    "meshes" : [
        {
            "name" : "snowman",
            "primitives" : [
                {
                    "attributes" : {
                        "POSITION" : 0,
                        "NORMAL" : 1,
                        "TEXCOORD_0" : 2
                    },
                    "indices" : 3,
                    "material" : 0
                }
            ]
        }
    ],
    "textures" : [
        {
            "source" : 0
        }
    ],
    "images" : [
        {
            "bufferView" : 4,
            "mimeType" : "image/png",
            "name" : "Untitled"
        }
    ],
    "accessors" : [
        {
            "bufferView" : 0,
            "componentType" : 5126,
            "count" : 2170,
            "max" : [
                20.704294204711914,
                3.007859230041504,
                -10.919677734375
            ],
            "min" : [
                -29.114469528198242,
                0.5052947998046875,
                -18.129472732543945
            ],
            "type" : "VEC3"
        },
        {
            "bufferView" : 1,
            "componentType" : 5126,
            "count" : 2170,
            "type" : "VEC3"
        },
        {
            "bufferView" : 2,
            "componentType" : 5126,
            "count" : 2170,
            "type" : "VEC2"
        },
        {
            "bufferView" : 3,
            "componentType" : 5123,
            "count" : 5694,
            "type" : "SCALAR"
        }
    ],
    "bufferViews" : [
        {
            "buffer" : 0,
            "byteLength" : 26040,
            "byteOffset" : 0
        },
        {
            "buffer" : 0,
            "byteLength" : 26040,
            "byteOffset" : 26040
        },
        {
            "buffer" : 0,
            "byteLength" : 17360,
            "byteOffset" : 52080
        },
        {
            "buffer" : 0,
            "byteLength" : 11388,
            "byteOffset" : 69440
        },
        {
            "buffer" : 0,
            "byteLength" : 231091,
            "byteOffset" : 80828
        }
    ],
    "buffers" : [
        {
            "byteLength" : 311920,
            "uri" : "data:application/octet-stream;base64,"
        }
    ]
}
