{
    "asset" : {
        "generator" : "Khronos glTF Blender I/O v1.0.5",
        "version" : "2.0"
    },
    "scene" : 0,
    "scenes" : [
        {
            "name" : "Scene",
            "nodes" : [
                0
            ]
        }
    ],
    "nodes" : [
        {
            "mesh" : 0,
            "name" : "rink.001"
        }
    ],
    "materials" : [
        {
            "doubleSided" : true,
            "name" : "Material.001",
            "pbrMetallicRoughness" : {
                "baseColorTexture" : {
                    "index" : 0,
                    "texCoord" : 0
                },
                "metallicFactor" : 0,
                "roughnessFactor" : 0.4000000059604645
            }
        }
    ],
    "meshes" : [
        {
            "name" : "Plane.043",
            "primitives" : [
                {
                    "attributes" : {
                        "POSITION" : 0,
                        "NORMAL" : 1,
                        "TEXCOORD_0" : 2
                    },
                    "indices" : 3,
                    "material" : 0
                }
            ]
        }
    ],
    "textures" : [
        {
            "source" : 0
        }
    ],
    "images" : [
        {
            "bufferView" : 4,
            "mimeType" : "image/png",
            "name" : "Image_0"
        }
    ],
    "accessors" : [
        {
            "bufferView" : 0,
            "componentType" : 5126,
            "count" : 9772,
            "max" : [
                77.16191101074219,
                5.009193420410156,
                49.98488235473633
            ],
            "min" : [
                -77.33760070800781,
                -0.19758963584899902,
                -48.66262435913086
            ],
            "type" : "VEC3"
        },
        {
            "bufferView" : 1,
            "componentType" : 5126,
            "count" : 9772,
            "type" : "VEC3"
        },
        {
            "bufferView" : 2,
            "componentType" : 5126,
            "count" : 9772,
            "type" : "VEC2"
        },
        {
            "bufferView" : 3,
            "componentType" : 5123,
            "count" : 12918,
            "type" : "SCALAR"
        }
    ],
    "bufferViews" : [
        {
            "buffer" : 0,
            "byteLength" : 117264,
            "byteOffset" : 0
        },
        {
            "buffer" : 0,
            "byteLength" : 117264,
            "byteOffset" : 117264
        },
        {
            "buffer" : 0,
            "byteLength" : 78176,
            "byteOffset" : 234528
        },
        {
            "buffer" : 0,
            "byteLength" : 25836,
            "byteOffset" : 312704
        },
        {
            "buffer" : 0,
            "byteLength" : 62966,
            "byteOffset" : 338540
        }
    ],
    "buffers" : [
        {
            "byteLength" : 401508,
            "uri" : "data:application/octet-stream;base64,"
        }
    ]
}
