{
    "asset" : {
        "generator" : "Khronos glTF Blender I/O v1.2.75",
        "version" : "2.0"
    },
    "scene" : 0,
    "scenes" : [
        {
            "name" : "Scene",
            "nodes" : [
                0
            ]
        }
    ],
    "nodes" : [
        {
            "mesh" : 0,
            "name" : "rink.001"
        }
    ],
    "materials" : [
        {
            "doubleSided" : true,
            "emissiveFactor" : [
                0,
                0,
                0
            ],
            "name" : "Material.003",
            "pbrMetallicRoughness" : {
                "baseColorTexture" : {
                    "index" : 0,
                    "texCoord" : 0
                },
                "metallicFactor" : 0,
                "roughnessFactor" : 0.5
            }
        }
    ],
    "meshes" : [
        {
            "name" : "Plane.032",
            "primitives" : [
                {
                    "attributes" : {
                        "POSITION" : 0,
                        "NORMAL" : 1,
                        "TEXCOORD_0" : 2
                    },
                    "indices" : 3,
                    "material" : 0
                }
            ]
        }
    ],
    "textures" : [
        {
            "source" : 0
        }
    ],
    "images" : [
        {
            "bufferView" : 4,
            "mimeType" : "image/png",
            "name" : "stadium"
        }
    ],
    "accessors" : [
        {
            "bufferView" : 0,
            "componentType" : 5126,
            "count" : 3987,
            "max" : [
                77.2882080078125,
                4.725404262542725,
                48.750553131103516
            ],
            "min" : [
                -77.21131896972656,
                -0.4813690185546875,
                -49.8969841003418
            ],
            "type" : "VEC3"
        },
        {
            "bufferView" : 1,
            "componentType" : 5126,
            "count" : 3987,
            "type" : "VEC3"
        },
        {
            "bufferView" : 2,
            "componentType" : 5126,
            "count" : 3987,
            "type" : "VEC2"
        },
        {
            "bufferView" : 3,
            "componentType" : 5123,
            "count" : 6987,
            "type" : "SCALAR"
        }
    ],
    "bufferViews" : [
        {
            "buffer" : 0,
            "byteLength" : 47844,
            "byteOffset" : 0
        },
        {
            "buffer" : 0,
            "byteLength" : 47844,
            "byteOffset" : 47844
        },
        {
            "buffer" : 0,
            "byteLength" : 31896,
            "byteOffset" : 95688
        },
        {
            "buffer" : 0,
            "byteLength" : 13974,
            "byteOffset" : 127584
        },
        {
            "buffer" : 0,
            "byteLength" : 13723,
            "byteOffset" : 141560
        }
    ],
    "buffers" : [
        {
            "byteLength" : 155284,
            "uri" : "data:application/octet-stream;base64,"
        }
    ]
}
