{
    "asset" : {
        "generator" : "Khronos glTF Blender I/O v1.3.48",
        "version" : "2.0"
    },
    "scene" : 0,
    "scenes" : [
        {
            "name" : "Scene",
            "nodes" : [
                0
            ]
        }
    ],
    "nodes" : [
        {
            "mesh" : 0,
            "name" : "Seat Base.007"
        }
    ],
    "materials" : [
        {
            "doubleSided" : true,
            "emissiveFactor" : [
                0,
                0,
                0
            ],
            "name" : "STADIUMTEXTURE",
            "pbrMetallicRoughness" : {
                "baseColorTexture" : {
                    "index" : 0,
                    "texCoord" : 0
                },
                "metallicFactor" : 0,
                "roughnessFactor" : 0.5
            }
        }
    ],
    "meshes" : [
        {
            "name" : "Cube.023",
            "primitives" : [
                {
                    "attributes" : {
                        "POSITION" : 0,
                        "NORMAL" : 1,
                        "TEXCOORD_0" : 2
                    },
                    "indices" : 3,
                    "material" : 0
                }
            ]
        }
    ],
    "textures" : [
        {
            "source" : 0
        }
    ],
    "images" : [
        {
            "bufferView" : 4,
            "mimeType" : "image/png",
            "name" : "StadiumTexture"
        }
    ],
    "accessors" : [
        {
            "bufferView" : 0,
            "componentType" : 5126,
            "count" : 9496,
            "max" : [
                77.2882080078125,
                12.26907730102539,
                48.750553131103516
            ],
            "min" : [
                -77.21131896972656,
                -0.6635738015174866,
                -49.8969841003418
            ],
            "type" : "VEC3"
        },
        {
            "bufferView" : 1,
            "componentType" : 5126,
            "count" : 9496,
            "type" : "VEC3"
        },
        {
            "bufferView" : 2,
            "componentType" : 5126,
            "count" : 9496,
            "type" : "VEC2"
        },
        {
            "bufferView" : 3,
            "componentType" : 5123,
            "count" : 16074,
            "type" : "SCALAR"
        }
    ],
    "bufferViews" : [
        {
            "buffer" : 0,
            "byteLength" : 113952,
            "byteOffset" : 0
        },
        {
            "buffer" : 0,
            "byteLength" : 113952,
            "byteOffset" : 113952
        },
        {
            "buffer" : 0,
            "byteLength" : 75968,
            "byteOffset" : 227904
        },
        {
            "buffer" : 0,
            "byteLength" : 32148,
            "byteOffset" : 303872
        },
        {
            "buffer" : 0,
            "byteLength" : 25542,
            "byteOffset" : 336020
        }
    ],
    "buffers" : [
        {
            "byteLength" : 361564,
            "uri" : "data:application/octet-stream;base64,"
        }
    ]
}
