{
    "asset" : {
        "generator" : "Khronos glTF Blender I/O v1.2.75",
        "version" : "2.0"
    },
    "scene" : 0,
    "scenes" : [
        {
            "name" : "Scene",
            "nodes" : [
                0
            ]
        }
    ],
    "nodes" : [
        {
            "mesh" : 0,
            "name" : "SUITCASE",
            "translation" : [
                0.3569466769695282,
                0.43537893891334534,
                0.010496380738914013
            ]
        }
    ],
    "materials" : [
        {
            "doubleSided" : true,
            "emissiveFactor" : [
                0,
                0,
                0
            ],
            "name" : "Material.008",
            "pbrMetallicRoughness" : {
                "baseColorTexture" : {
                    "index" : 0,
                    "texCoord" : 0
                },
                "metallicFactor" : 0,
                "roughnessFactor" : 1
            }
        }
    ],
    "meshes" : [
        {
            "name" : "Plane.009",
            "primitives" : [
                {
                    "attributes" : {
                        "POSITION" : 0,
                        "NORMAL" : 1
                    },
                    "indices" : 2,
                    "material" : 0
                }
            ]
        }
    ],
    "textures" : [
        {
            "source" : 0
        }
    ],
    "images" : [
        {
            "bufferView" : 3,
            "mimeType" : "image/png",
            "name" : "Untitled"
        }
    ],
    "accessors" : [
        {
            "bufferView" : 0,
            "componentType" : 5126,
            "count" : 238,
            "max" : [
                0.2517795264720917,
                0.030762940645217896,
                0.1863231658935547
            ],
            "min" : [
                -0.02137041836977005,
                -0.061553746461868286,
                -0.1311069130897522
            ],
            "type" : "VEC3"
        },
        {
            "bufferView" : 1,
            "componentType" : 5126,
            "count" : 238,
            "type" : "VEC3"
        },
        {
            "bufferView" : 2,
            "componentType" : 5123,
            "count" : 360,
            "type" : "SCALAR"
        }
    ],
    "bufferViews" : [
        {
            "buffer" : 0,
            "byteLength" : 2856,
            "byteOffset" : 0
        },
        {
            "buffer" : 0,
            "byteLength" : 2856,
            "byteOffset" : 2856
        },
        {
            "buffer" : 0,
            "byteLength" : 720,
            "byteOffset" : 5712
        },
        {
            "buffer" : 0,
            "byteLength" : 20566,
            "byteOffset" : 6432
        }
    ],
    "buffers" : [
        {
            "byteLength" : 27000,
            "uri" : "data:application/octet-stream;base64,"
        }
    ]
}
