{
    "asset" : {
        "generator" : "Khronos glTF Blender I/O v1.2.75",
        "version" : "2.0"
    },
    "scene" : 0,
    "scenes" : [
        {
            "name" : "Scene",
            "nodes" : [
                0
            ]
        }
    ],
    "nodes" : [
        {
            "mesh" : 0,
            "name" : "TIE"
        }
    ],
    "materials" : [
        {
            "doubleSided" : true,
            "emissiveFactor" : [
                0,
                0,
                0
            ],
            "name" : "Material.008",
            "pbrMetallicRoughness" : {
                "baseColorTexture" : {
                    "index" : 0,
                    "texCoord" : 0
                },
                "metallicFactor" : 0,
                "roughnessFactor" : 1
            }
        }
    ],
    "meshes" : [
        {
            "name" : "Plane.008",
            "primitives" : [
                {
                    "attributes" : {
                        "POSITION" : 0,
                        "NORMAL" : 1,
                        "TEXCOORD_0" : 2
                    },
                    "indices" : 3,
                    "material" : 0
                }
            ]
        }
    ],
    "textures" : [
        {
            "source" : 0
        }
    ],
    "images" : [
        {
            "bufferView" : 4,
            "mimeType" : "image/png",
            "name" : "Untitled"
        }
    ],
    "accessors" : [
        {
            "bufferView" : 0,
            "componentType" : 5126,
            "count" : 87,
            "max" : [
                0.14029833674430847,
                0.5642890334129333,
                0.18480168282985687
            ],
            "min" : [
                -0.14029842615127563,
                0.14063051342964172,
                -0.22414997220039368
            ],
            "type" : "VEC3"
        },
        {
            "bufferView" : 1,
            "componentType" : 5126,
            "count" : 87,
            "type" : "VEC3"
        },
        {
            "bufferView" : 2,
            "componentType" : 5126,
            "count" : 87,
            "type" : "VEC2"
        },
        {
            "bufferView" : 3,
            "componentType" : 5123,
            "count" : 414,
            "type" : "SCALAR"
        }
    ],
    "bufferViews" : [
        {
            "buffer" : 0,
            "byteLength" : 1044,
            "byteOffset" : 0
        },
        {
            "buffer" : 0,
            "byteLength" : 1044,
            "byteOffset" : 1044
        },
        {
            "buffer" : 0,
            "byteLength" : 696,
            "byteOffset" : 2088
        },
        {
            "buffer" : 0,
            "byteLength" : 828,
            "byteOffset" : 2784
        },
        {
            "buffer" : 0,
            "byteLength" : 20566,
            "byteOffset" : 3612
        }
    ],
    "buffers" : [
        {
            "byteLength" : 24180,
            "uri" : "data:application/octet-stream;base64,"
        }
    ]
}
