{
    "asset" : {
        "generator" : "Khronos glTF Blender I/O v1.2.75",
        "version" : "2.0"
    },
    "scene" : 0,
    "scenes" : [
        {
            "name" : "Scene",
            "nodes" : [
                0
            ]
        }
    ],
    "nodes" : [
        {
            "mesh" : 0,
            "name" : "Plane.001"
        }
    ],
    "materials" : [
        {
            "doubleSided" : true,
            "emissiveFactor" : [
                0,
                0,
                0
            ],
            "name" : "Material.014",
            "pbrMetallicRoughness" : {
                "baseColorTexture" : {
                    "index" : 0,
                    "texCoord" : 0
                },
                "metallicFactor" : 0,
                "roughnessFactor" : 1
            }
        }
    ],
    "meshes" : [
        {
            "name" : "Plane.007",
            "primitives" : [
                {
                    "attributes" : {
                        "POSITION" : 0,
                        "NORMAL" : 1,
                        "TEXCOORD_0" : 2
                    },
                    "indices" : 3,
                    "material" : 0
                }
            ]
        }
    ],
    "textures" : [
        {
            "source" : 0
        }
    ],
    "images" : [
        {
            "bufferView" : 4,
            "mimeType" : "image/png",
            "name" : "ConeTexture"
        }
    ],
    "accessors" : [
        {
            "bufferView" : 0,
            "componentType" : 5126,
            "count" : 179,
            "max" : [
                0.17745424807071686,
                0.9875172972679138,
                0.19124966859817505
            ],
            "min" : [
                -0.177479550242424,
                0.5998693704605103,
                -0.1596996784210205
            ],
            "type" : "VEC3"
        },
        {
            "bufferView" : 1,
            "componentType" : 5126,
            "count" : 179,
            "type" : "VEC3"
        },
        {
            "bufferView" : 2,
            "componentType" : 5126,
            "count" : 179,
            "type" : "VEC2"
        },
        {
            "bufferView" : 3,
            "componentType" : 5123,
            "count" : 363,
            "type" : "SCALAR"
        }
    ],
    "bufferViews" : [
        {
            "buffer" : 0,
            "byteLength" : 2148,
            "byteOffset" : 0
        },
        {
            "buffer" : 0,
            "byteLength" : 2148,
            "byteOffset" : 2148
        },
        {
            "buffer" : 0,
            "byteLength" : 1432,
            "byteOffset" : 4296
        },
        {
            "buffer" : 0,
            "byteLength" : 726,
            "byteOffset" : 5728
        },
        {
            "buffer" : 0,
            "byteLength" : 25956,
            "byteOffset" : 6456
        }
    ],
    "buffers" : [
        {
            "byteLength" : 32412,
            "uri" : "data:application/octet-stream;base64,"
        }
    ]
}
