{
    "asset" : {
        "generator" : "Khronos glTF Blender I/O v1.3.48",
        "version" : "2.0"
    },
    "scene" : 0,
    "scenes" : [
        {
            "name" : "Scene",
            "nodes" : [
                0
            ]
        }
    ],
    "nodes" : [
        {
            "mesh" : 0,
            "name" : "Cone.024"
        }
    ],
    "materials" : [
        {
            "doubleSided" : true,
            "emissiveFactor" : [
                0,
                0,
                0
            ],
            "name" : "trees",
            "pbrMetallicRoughness" : {
                "baseColorTexture" : {
                    "index" : 0,
                    "texCoord" : 0
                },
                "metallicFactor" : 0,
                "roughnessFactor" : 1
            }
        }
    ],
    "meshes" : [
        {
            "name" : "Cone.029",
            "primitives" : [
                {
                    "attributes" : {
                        "POSITION" : 0,
                        "NORMAL" : 1,
                        "TEXCOORD_0" : 2
                    },
                    "indices" : 3,
                    "material" : 0
                }
            ]
        }
    ],
    "textures" : [
        {
            "source" : 0
        }
    ],
    "images" : [
        {
            "bufferView" : 4,
            "mimeType" : "image/png",
            "name" : "trees"
        }
    ],
    "accessors" : [
        {
            "bufferView" : 0,
            "componentType" : 5126,
            "count" : 22750,
            "max" : [
                17.73394012451172,
                23.956016540527344,
                -7.062619209289551
            ],
            "min" : [
                -36.26655578613281,
                -1.0177643299102783,
                -38.249237060546875
            ],
            "type" : "VEC3"
        },
        {
            "bufferView" : 1,
            "componentType" : 5126,
            "count" : 22750,
            "type" : "VEC3"
        },
        {
            "bufferView" : 2,
            "componentType" : 5126,
            "count" : 22750,
            "type" : "VEC2"
        },
        {
            "bufferView" : 3,
            "componentType" : 5123,
            "count" : 33654,
            "type" : "SCALAR"
        }
    ],
    "bufferViews" : [
        {
            "buffer" : 0,
            "byteLength" : 273000,
            "byteOffset" : 0
        },
        {
            "buffer" : 0,
            "byteLength" : 273000,
            "byteOffset" : 273000
        },
        {
            "buffer" : 0,
            "byteLength" : 182000,
            "byteOffset" : 546000
        },
        {
            "buffer" : 0,
            "byteLength" : 67308,
            "byteOffset" : 728000
        },
        {
            "buffer" : 0,
            "byteLength" : 24733,
            "byteOffset" : 795308
        }
    ],
    "buffers" : [
        {
            "byteLength" : 820044,
            "uri" : "data:application/octet-stream;base64,"
        }
    ]
}
