{
    "asset" : {
        "generator" : "Khronos glTF Blender I/O v1.3.48",
        "version" : "2.0"
    },
    "scene" : 0,
    "scenes" : [
        {
            "name" : "Scene",
            "nodes" : [
                0
            ]
        }
    ],
    "nodes" : [
        {
            "mesh" : 0,
            "name" : "Cone.024"
        }
    ],
    "materials" : [
        {
            "doubleSided" : true,
            "emissiveFactor" : [
                0,
                0,
                0
            ],
            "name" : "trees",
            "pbrMetallicRoughness" : {
                "baseColorTexture" : {
                    "index" : 0,
                    "texCoord" : 0
                },
                "metallicFactor" : 0,
                "roughnessFactor" : 1
            }
        }
    ],
    "meshes" : [
        {
            "name" : "Cone.029",
            "primitives" : [
                {
                    "attributes" : {
                        "POSITION" : 0,
                        "NORMAL" : 1,
                        "TEXCOORD_0" : 2
                    },
                    "indices" : 3,
                    "material" : 0
                }
            ]
        }
    ],
    "textures" : [
        {
            "source" : 0
        }
    ],
    "images" : [
        {
            "bufferView" : 4,
            "mimeType" : "image/png",
            "name" : "trees"
        }
    ],
    "accessors" : [
        {
            "bufferView" : 0,
            "componentType" : 5126,
            "count" : 38962,
            "max" : [
                29.123682022094727,
                23.956016540527344,
                17.22166633605957
            ],
            "min" : [
                -36.60040283203125,
                -0.6589806079864502,
                -38.249237060546875
            ],
            "type" : "VEC3"
        },
        {
            "bufferView" : 1,
            "componentType" : 5126,
            "count" : 38962,
            "type" : "VEC3"
        },
        {
            "bufferView" : 2,
            "componentType" : 5126,
            "count" : 38962,
            "type" : "VEC2"
        },
        {
            "bufferView" : 3,
            "componentType" : 5123,
            "count" : 57720,
            "type" : "SCALAR"
        }
    ],
    "bufferViews" : [
        {
            "buffer" : 0,
            "byteLength" : 467544,
            "byteOffset" : 0
        },
        {
            "buffer" : 0,
            "byteLength" : 467544,
            "byteOffset" : 467544
        },
        {
            "buffer" : 0,
            "byteLength" : 311696,
            "byteOffset" : 935088
        },
        {
            "buffer" : 0,
            "byteLength" : 115440,
            "byteOffset" : 1246784
        },
        {
            "buffer" : 0,
            "byteLength" : 24733,
            "byteOffset" : 1362224
        }
    ],
    "buffers" : [
        {
            "byteLength" : 1386960,
            "uri" : "data:application/octet-stream;base64,"
        }
    ]
}
